<svg width="233" height="275" viewBox="0 0 233 275" fill="none" xmlns="http://www.w3.org/2000/svg">
<path d="M94.7598 2.95457C95.4501 2.95457 96.0098 2.29317 96.0098 1.47729C96.0098 0.661403 95.4501 0 94.7598 0C94.0694 0 93.5098 0.661403 93.5098 1.47729C93.5098 2.29317 94.0694 2.95457 94.7598 2.95457Z" fill="white"/>
<path d="M101.95 11.4641C102.641 11.4641 103.2 10.8027 103.2 9.98681C103.2 9.17092 102.641 8.50952 101.95 8.50952C101.26 8.50952 100.7 9.17092 100.7 9.98681C100.7 10.8027 101.26 11.4641 101.95 11.4641Z" fill="white"/>
<path d="M109.149 19.9612C109.84 19.9612 110.399 19.2998 110.399 18.4839C110.399 17.668 109.84 17.0066 109.149 17.0066C108.459 17.0066 107.899 17.668 107.899 18.4839C107.899 19.2998 108.459 19.9612 109.149 19.9612Z" fill="white"/>
<path d="M116.34 28.459C117.03 28.459 117.59 27.7976 117.59 26.9817C117.59 26.1658 117.03 25.5044 116.34 25.5044C115.649 25.5044 115.09 26.1658 115.09 26.9817C115.09 27.7976 115.649 28.459 116.34 28.459Z" fill="white"/>
<path d="M123.529 36.9675C124.22 36.9675 124.779 36.3061 124.779 35.4902C124.779 34.6743 124.22 34.0129 123.529 34.0129C122.839 34.0129 122.279 34.6743 122.279 35.4902C122.279 36.3061 122.839 36.9675 123.529 36.9675Z" fill="white"/>
<path d="M131.61 45.0279C131.12 45.607 130.33 45.607 129.84 45.0279C129.35 44.4488 129.35 43.5151 129.84 42.936C130.33 42.3569 131.12 42.3569 131.61 42.936C132.1 43.5151 132.1 44.4606 131.61 45.0279Z" fill="white"/>
<path d="M137.92 53.9624C138.61 53.9624 139.17 53.301 139.17 52.4851C139.17 51.6692 138.61 51.0078 137.92 51.0078C137.23 51.0078 136.67 51.6692 136.67 52.4851C136.67 53.301 137.23 53.9624 137.92 53.9624Z" fill="white"/>
<path d="M145.109 62.4709C145.8 62.4709 146.359 61.8095 146.359 60.9936C146.359 60.1778 145.8 59.5164 145.109 59.5164C144.419 59.5164 143.859 60.1778 143.859 60.9936C143.859 61.8095 144.419 62.4709 145.109 62.4709Z" fill="white"/>
<path d="M152.31 70.969C153 70.969 153.56 70.3076 153.56 69.4917C153.56 68.6758 153 68.0144 152.31 68.0144C151.619 68.0144 151.06 68.6758 151.06 69.4917C151.06 70.3076 151.619 70.969 152.31 70.969Z" fill="white"/>
<path d="M159.5 79.4668C160.19 79.4668 160.75 78.8054 160.75 77.9895C160.75 77.1736 160.19 76.5122 159.5 76.5122C158.81 76.5122 158.25 77.1736 158.25 77.9895C158.25 78.8054 158.81 79.4668 159.5 79.4668Z" fill="white"/>
<path d="M166.689 87.9753C167.38 87.9753 167.939 87.3139 167.939 86.498C167.939 85.6822 167.38 85.0208 166.689 85.0208C165.999 85.0208 165.439 85.6822 165.439 86.498C165.439 87.3139 165.999 87.9753 166.689 87.9753Z" fill="white"/>
<path d="M173.89 96.4724C174.58 96.4724 175.14 95.811 175.14 94.9951C175.14 94.1792 174.58 93.5178 173.89 93.5178C173.199 93.5178 172.64 94.1792 172.64 94.9951C172.64 95.811 173.199 96.4724 173.89 96.4724Z" fill="white"/>
<path d="M181.08 104.97C181.77 104.97 182.33 104.309 182.33 103.493C182.33 102.677 181.77 102.016 181.08 102.016C180.39 102.016 179.83 102.677 179.83 103.493C179.83 104.309 180.39 104.97 181.08 104.97Z" fill="white"/>
<path d="M188.27 113.467C188.96 113.467 189.52 112.806 189.52 111.99C189.52 111.174 188.96 110.513 188.27 110.513C187.579 110.513 187.02 111.174 187.02 111.99C187.02 112.806 187.579 113.467 188.27 113.467Z" fill="white"/>
<path d="M195.47 121.977C196.16 121.977 196.72 121.315 196.72 120.5C196.72 119.684 196.16 119.022 195.47 119.022C194.779 119.022 194.22 119.684 194.22 120.5C194.22 121.315 194.779 121.977 195.47 121.977Z" fill="white"/>
<path d="M203.54 130.049C203.05 130.628 202.26 130.628 201.77 130.049C201.28 129.47 201.28 128.536 201.77 127.957C202.26 127.378 203.05 127.378 203.54 127.957C204.03 128.524 204.03 129.47 203.54 130.049Z" fill="white"/>
<path d="M209.85 138.971C210.54 138.971 211.1 138.31 211.1 137.494C211.1 136.678 210.54 136.017 209.85 136.017C209.159 136.017 208.6 136.678 208.6 137.494C208.6 138.31 209.159 138.971 209.85 138.971Z" fill="white"/>
<path d="M217.05 147.48C217.74 147.48 218.3 146.819 218.3 146.003C218.3 145.187 217.74 144.526 217.05 144.526C216.359 144.526 215.8 145.187 215.8 146.003C215.8 146.819 216.359 147.48 217.05 147.48Z" fill="white"/>
<path d="M224.24 155.978C224.931 155.978 225.49 155.317 225.49 154.501C225.49 153.685 224.931 153.023 224.24 153.023C223.55 153.023 222.99 153.685 222.99 154.501C222.99 155.317 223.55 155.978 224.24 155.978Z" fill="white"/>
<path d="M232.32 164.05C231.83 164.629 231.04 164.629 230.55 164.05C230.06 163.471 230.06 162.537 230.55 161.958C231.04 161.379 231.83 161.379 232.32 161.958C232.81 162.537 232.81 163.471 232.32 164.05Z" fill="white"/>
<path d="M87.5703 11.4638C88.2607 11.4638 88.8203 10.8024 88.8203 9.98656C88.8203 9.17068 88.2607 8.50928 87.5703 8.50928C86.88 8.50928 86.3203 9.17068 86.3203 9.98656C86.3203 10.8024 86.88 11.4638 87.5703 11.4638Z" fill="white"/>
<path d="M94.7607 19.9609C95.4511 19.9609 96.0107 19.2995 96.0107 18.4836C96.0107 17.6678 95.4511 17.0063 94.7607 17.0063C94.0704 17.0063 93.5107 17.6678 93.5107 18.4836C93.5107 19.2995 94.0704 19.9609 94.7607 19.9609Z" fill="white"/>
<path d="M101.95 28.4587C102.641 28.4587 103.2 27.7973 103.2 26.9814C103.2 26.1656 102.641 25.5042 101.95 25.5042C101.26 25.5042 100.7 26.1656 100.7 26.9814C100.7 27.7973 101.26 28.4587 101.95 28.4587Z" fill="white"/>
<path d="M109.15 36.9682C109.841 36.9682 110.4 36.3068 110.4 35.491C110.4 34.6751 109.841 34.0137 109.15 34.0137C108.46 34.0137 107.9 34.6751 107.9 35.491C107.9 36.3068 108.46 36.9682 109.15 36.9682Z" fill="white"/>
<path d="M116.34 45.4651C117.03 45.4651 117.59 44.8037 117.59 43.9878C117.59 43.1719 117.03 42.5105 116.34 42.5105C115.649 42.5105 115.09 43.1719 115.09 43.9878C115.09 44.8037 115.649 45.4651 116.34 45.4651Z" fill="white"/>
<path d="M123.53 53.9621C124.221 53.9621 124.78 53.3007 124.78 52.4849C124.78 51.669 124.221 51.0076 123.53 51.0076C122.84 51.0076 122.28 51.669 122.28 52.4849C122.28 53.3007 122.84 53.9621 123.53 53.9621Z" fill="white"/>
<path d="M131.61 62.034C131.12 62.6131 130.33 62.6131 129.84 62.034C129.35 61.4549 129.35 60.5212 129.84 59.9421C130.33 59.363 131.12 59.363 131.61 59.9421C132.1 60.5212 132.1 61.4549 131.61 62.034Z" fill="white"/>
<path d="M137.92 70.9687C138.61 70.9687 139.17 70.3073 139.17 69.4914C139.17 68.6756 138.61 68.0142 137.92 68.0142C137.23 68.0142 136.67 68.6756 136.67 69.4914C136.67 70.3073 137.23 70.9687 137.92 70.9687Z" fill="white"/>
<path d="M145.11 79.4665C145.801 79.4665 146.36 78.8051 146.36 77.9892C146.36 77.1734 145.801 76.512 145.11 76.512C144.42 76.512 143.86 77.1734 143.86 77.9892C143.86 78.8051 144.42 79.4665 145.11 79.4665Z" fill="white"/>
<path d="M152.311 87.9761C153.001 87.9761 153.561 87.3147 153.561 86.4988C153.561 85.6829 153.001 85.0215 152.311 85.0215C151.62 85.0215 151.061 85.6829 151.061 86.4988C151.061 87.3147 151.62 87.9761 152.311 87.9761Z" fill="white"/>
<path d="M159.5 96.4729C160.19 96.4729 160.75 95.8115 160.75 94.9956C160.75 94.1797 160.19 93.5183 159.5 93.5183C158.81 93.5183 158.25 94.1797 158.25 94.9956C158.25 95.8115 158.81 96.4729 159.5 96.4729Z" fill="white"/>
<path d="M166.69 104.97C167.381 104.97 167.94 104.309 167.94 103.493C167.94 102.677 167.381 102.015 166.69 102.015C166 102.015 165.44 102.677 165.44 103.493C165.44 104.309 166 104.97 166.69 104.97Z" fill="white"/>
<path d="M173.891 113.467C174.581 113.467 175.141 112.806 175.141 111.99C175.141 111.174 174.581 110.512 173.891 110.512C173.2 110.512 172.641 111.174 172.641 111.99C172.641 112.806 173.2 113.467 173.891 113.467Z" fill="white"/>
<path d="M181.08 121.977C181.77 121.977 182.33 121.316 182.33 120.5C182.33 119.684 181.77 119.023 181.08 119.023C180.39 119.023 179.83 119.684 179.83 120.5C179.83 121.316 180.39 121.977 181.08 121.977Z" fill="white"/>
<path d="M189.16 130.048C188.67 130.627 187.88 130.627 187.39 130.048C186.9 129.469 186.9 128.536 187.39 127.957C187.88 127.377 188.67 127.377 189.16 127.957C189.65 128.524 189.65 129.469 189.16 130.048Z" fill="white"/>
<path d="M195.471 138.971C196.161 138.971 196.721 138.31 196.721 137.494C196.721 136.678 196.161 136.017 195.471 136.017C194.78 136.017 194.221 136.678 194.221 137.494C194.221 138.31 194.78 138.971 195.471 138.971Z" fill="white"/>
<path d="M202.66 147.48C203.351 147.48 203.91 146.819 203.91 146.003C203.91 145.187 203.351 144.525 202.66 144.525C201.97 144.525 201.41 145.187 201.41 146.003C201.41 146.819 201.97 147.48 202.66 147.48Z" fill="white"/>
<path d="M209.851 155.978C210.541 155.978 211.101 155.316 211.101 154.5C211.101 153.685 210.541 153.023 209.851 153.023C209.16 153.023 208.601 153.685 208.601 154.5C208.601 155.316 209.16 155.978 209.851 155.978Z" fill="white"/>
<path d="M217.051 164.476C217.741 164.476 218.301 163.814 218.301 162.998C218.301 162.182 217.741 161.521 217.051 161.521C216.36 161.521 215.801 162.182 215.801 162.998C215.801 163.814 216.36 164.476 217.051 164.476Z" fill="white"/>
<path d="M224.24 172.984C224.931 172.984 225.49 172.323 225.49 171.507C225.49 170.691 224.931 170.03 224.24 170.03C223.55 170.03 222.99 170.691 222.99 171.507C222.99 172.323 223.55 172.984 224.24 172.984Z" fill="white"/>
<path d="M80.3701 19.9614C81.0605 19.9614 81.6201 19.3 81.6201 18.4841C81.6201 17.6682 81.0605 17.0068 80.3701 17.0068C79.6798 17.0068 79.1201 17.6682 79.1201 18.4841C79.1201 19.3 79.6798 19.9614 80.3701 19.9614Z" fill="white"/>
<path d="M87.5703 28.4585C88.2607 28.4585 88.8203 27.7971 88.8203 26.9812C88.8203 26.1653 88.2607 25.5039 87.5703 25.5039C86.88 25.5039 86.3203 26.1653 86.3203 26.9812C86.3203 27.7971 86.88 28.4585 87.5703 28.4585Z" fill="white"/>
<path d="M94.7598 36.968C95.4501 36.968 96.0098 36.3066 96.0098 35.4907C96.0098 34.6748 95.4501 34.0134 94.7598 34.0134C94.0694 34.0134 93.5098 34.6748 93.5098 35.4907C93.5098 36.3066 94.0694 36.968 94.7598 36.968Z" fill="white"/>
<path d="M101.95 45.4658C102.641 45.4658 103.2 44.8044 103.2 43.9885C103.2 43.1726 102.641 42.5112 101.95 42.5112C101.26 42.5112 100.7 43.1726 100.7 43.9885C100.7 44.8044 101.26 45.4658 101.95 45.4658Z" fill="white"/>
<path d="M109.15 53.9626C109.841 53.9626 110.4 53.3012 110.4 52.4853C110.4 51.6695 109.841 51.0081 109.15 51.0081C108.46 51.0081 107.9 51.6695 107.9 52.4853C107.9 53.3012 108.46 53.9626 109.15 53.9626Z" fill="white"/>
<path d="M116.34 62.4714C117.03 62.4714 117.59 61.81 117.59 60.9941C117.59 60.1782 117.03 59.5168 116.34 59.5168C115.649 59.5168 115.09 60.1782 115.09 60.9941C115.09 61.81 115.649 62.4714 116.34 62.4714Z" fill="white"/>
<path d="M123.53 70.9692C124.221 70.9692 124.78 70.3078 124.78 69.4919C124.78 68.6761 124.221 68.0146 123.53 68.0146C122.84 68.0146 122.28 68.6761 122.28 69.4919C122.28 70.3078 122.84 70.9692 123.53 70.9692Z" fill="white"/>
<path d="M131.61 79.0411C131.12 79.6202 130.33 79.6202 129.84 79.0411C129.35 78.462 129.35 77.5283 129.84 76.9492C130.33 76.3701 131.12 76.3701 131.61 76.9492C132.1 77.5283 132.1 78.462 131.61 79.0411Z" fill="white"/>
<path d="M137.92 87.9758C138.61 87.9758 139.17 87.3144 139.17 86.4985C139.17 85.6826 138.61 85.0212 137.92 85.0212C137.23 85.0212 136.67 85.6826 136.67 86.4985C136.67 87.3144 137.23 87.9758 137.92 87.9758Z" fill="white"/>
<path d="M145.11 96.4736C145.801 96.4736 146.36 95.8122 146.36 94.9963C146.36 94.1804 145.801 93.519 145.11 93.519C144.42 93.519 143.86 94.1804 143.86 94.9963C143.86 95.8122 144.42 96.4736 145.11 96.4736Z" fill="white"/>
<path d="M152.311 104.97C153.001 104.97 153.561 104.309 153.561 103.493C153.561 102.677 153.001 102.016 152.311 102.016C151.62 102.016 151.061 102.677 151.061 103.493C151.061 104.309 151.62 104.97 152.311 104.97Z" fill="white"/>
<path d="M159.5 113.468C160.19 113.468 160.75 112.806 160.75 111.99C160.75 111.174 160.19 110.513 159.5 110.513C158.81 110.513 158.25 111.174 158.25 111.99C158.25 112.806 158.81 113.468 159.5 113.468Z" fill="white"/>
<path d="M166.69 121.976C167.381 121.976 167.94 121.315 167.94 120.499C167.94 119.683 167.381 119.022 166.69 119.022C166 119.022 165.44 119.683 165.44 120.499C165.44 121.315 166 121.976 166.69 121.976Z" fill="white"/>
<path d="M174.77 130.048C174.28 130.627 173.49 130.627 173 130.048C172.51 129.469 172.51 128.535 173 127.956C173.49 127.377 174.28 127.377 174.77 127.956C175.26 128.524 175.26 129.469 174.77 130.048Z" fill="white"/>
<path d="M181.08 138.972C181.77 138.972 182.33 138.311 182.33 137.495C182.33 136.679 181.77 136.017 181.08 136.017C180.39 136.017 179.83 136.679 179.83 137.495C179.83 138.311 180.39 138.972 181.08 138.972Z" fill="white"/>
<path d="M188.271 147.48C188.961 147.48 189.521 146.819 189.521 146.003C189.521 145.187 188.961 144.526 188.271 144.526C187.58 144.526 187.021 145.187 187.021 146.003C187.021 146.819 187.58 147.48 188.271 147.48Z" fill="white"/>
<path d="M195.47 155.978C196.16 155.978 196.72 155.316 196.72 154.5C196.72 153.684 196.16 153.023 195.47 153.023C194.779 153.023 194.22 153.684 194.22 154.5C194.22 155.316 194.779 155.978 195.47 155.978Z" fill="white"/>
<path d="M202.66 164.475C203.351 164.475 203.91 163.814 203.91 162.998C203.91 162.182 203.351 161.521 202.66 161.521C201.97 161.521 201.41 162.182 201.41 162.998C201.41 163.814 201.97 164.475 202.66 164.475Z" fill="white"/>
<path d="M209.85 172.985C210.54 172.985 211.1 172.323 211.1 171.508C211.1 170.692 210.54 170.03 209.85 170.03C209.159 170.03 208.6 170.692 208.6 171.508C208.6 172.323 209.159 172.985 209.85 172.985Z" fill="white"/>
<path d="M217.05 181.482C217.74 181.482 218.3 180.821 218.3 180.005C218.3 179.189 217.74 178.527 217.05 178.527C216.359 178.527 215.8 179.189 215.8 180.005C215.8 180.821 216.359 181.482 217.05 181.482Z" fill="white"/>
<path d="M73.1797 28.4577C73.87 28.4577 74.4297 27.7963 74.4297 26.9805C74.4297 26.1646 73.87 25.5032 73.1797 25.5032C72.4893 25.5032 71.9297 26.1646 71.9297 26.9805C71.9297 27.7963 72.4893 28.4577 73.1797 28.4577Z" fill="white"/>
<path d="M80.3701 36.9665C81.0605 36.9665 81.6201 36.3051 81.6201 35.4892C81.6201 34.6734 81.0605 34.012 80.3701 34.012C79.6798 34.012 79.1201 34.6734 79.1201 35.4892C79.1201 36.3051 79.6798 36.9665 80.3701 36.9665Z" fill="white"/>
<path d="M87.5693 45.4643C88.2597 45.4643 88.8193 44.8029 88.8193 43.9871C88.8193 43.1712 88.2597 42.5098 87.5693 42.5098C86.879 42.5098 86.3193 43.1712 86.3193 43.9871C86.3193 44.8029 86.879 45.4643 87.5693 45.4643Z" fill="white"/>
<path d="M94.7598 53.9621C95.4501 53.9621 96.0098 53.3007 96.0098 52.4849C96.0098 51.669 95.4501 51.0076 94.7598 51.0076C94.0694 51.0076 93.5098 51.669 93.5098 52.4849C93.5098 53.3007 94.0694 53.9621 94.7598 53.9621Z" fill="white"/>
<path d="M101.949 62.4707C102.64 62.4707 103.199 61.8093 103.199 60.9934C103.199 60.1775 102.64 59.5161 101.949 59.5161C101.259 59.5161 100.699 60.1775 100.699 60.9934C100.699 61.8093 101.259 62.4707 101.949 62.4707Z" fill="white"/>
<path d="M109.149 70.9678C109.84 70.9678 110.399 70.3064 110.399 69.4905C110.399 68.6746 109.84 68.0132 109.149 68.0132C108.459 68.0132 107.899 68.6746 107.899 69.4905C107.899 70.3064 108.459 70.9678 109.149 70.9678Z" fill="white"/>
<path d="M116.34 79.4656C117.03 79.4656 117.59 78.8042 117.59 77.9883C117.59 77.1724 117.03 76.511 116.34 76.511C115.649 76.511 115.09 77.1724 115.09 77.9883C115.09 78.8042 115.649 79.4656 116.34 79.4656Z" fill="white"/>
<path d="M123.529 87.9741C124.22 87.9741 124.779 87.3127 124.779 86.4968C124.779 85.6809 124.22 85.0195 123.529 85.0195C122.839 85.0195 122.279 85.6809 122.279 86.4968C122.279 87.3127 122.839 87.9741 123.529 87.9741Z" fill="white"/>
<path d="M131.61 96.0345C131.12 96.6136 130.33 96.6136 129.84 96.0345C129.35 95.4554 129.35 94.5217 129.84 93.9426C130.33 93.3635 131.12 93.3635 131.61 93.9426C132.1 94.5217 132.1 95.4554 131.61 96.0345Z" fill="white"/>
<path d="M137.92 104.97C138.61 104.97 139.17 104.309 139.17 103.493C139.17 102.677 138.61 102.015 137.92 102.015C137.23 102.015 136.67 102.677 136.67 103.493C136.67 104.309 137.23 104.97 137.92 104.97Z" fill="white"/>
<path d="M145.109 113.467C145.8 113.467 146.359 112.805 146.359 111.989C146.359 111.174 145.8 110.512 145.109 110.512C144.419 110.512 143.859 111.174 143.859 111.989C143.859 112.805 144.419 113.467 145.109 113.467Z" fill="white"/>
<path d="M152.31 121.976C153 121.976 153.56 121.314 153.56 120.498C153.56 119.682 153 119.021 152.31 119.021C151.619 119.021 151.06 119.682 151.06 120.498C151.06 121.314 151.619 121.976 152.31 121.976Z" fill="white"/>
<path d="M160.389 130.047C159.899 130.626 159.109 130.626 158.619 130.047C158.129 129.468 158.129 128.535 158.619 127.956C159.109 127.376 159.899 127.376 160.389 127.956C160.869 128.523 160.869 129.468 160.389 130.047Z" fill="white"/>
<path d="M166.689 138.97C167.38 138.97 167.939 138.309 167.939 137.493C167.939 136.677 167.38 136.016 166.689 136.016C165.999 136.016 165.439 136.677 165.439 137.493C165.439 138.309 165.999 138.97 166.689 138.97Z" fill="white"/>
<path d="M173.89 147.48C174.58 147.48 175.14 146.819 175.14 146.003C175.14 145.187 174.58 144.525 173.89 144.525C173.199 144.525 172.64 145.187 172.64 146.003C172.64 146.819 173.199 147.48 173.89 147.48Z" fill="white"/>
<path d="M181.08 155.977C181.77 155.977 182.33 155.315 182.33 154.499C182.33 153.684 181.77 153.022 181.08 153.022C180.39 153.022 179.83 153.684 179.83 154.499C179.83 155.315 180.39 155.977 181.08 155.977Z" fill="white"/>
<path d="M188.27 164.474C188.96 164.474 189.52 163.812 189.52 162.997C189.52 162.181 188.96 161.519 188.27 161.519C187.579 161.519 187.02 162.181 187.02 162.997C187.02 163.812 187.579 164.474 188.27 164.474Z" fill="white"/>
<path d="M195.47 172.983C196.16 172.983 196.72 172.322 196.72 171.506C196.72 170.69 196.16 170.029 195.47 170.029C194.779 170.029 194.22 170.69 194.22 171.506C194.22 172.322 194.779 172.983 195.47 172.983Z" fill="white"/>
<path d="M202.66 181.481C203.351 181.481 203.91 180.82 203.91 180.004C203.91 179.188 203.351 178.527 202.66 178.527C201.97 178.527 201.41 179.188 201.41 180.004C201.41 180.82 201.97 181.481 202.66 181.481Z" fill="white"/>
<path d="M209.85 189.978C210.54 189.978 211.1 189.317 211.1 188.501C211.1 187.685 210.54 187.024 209.85 187.024C209.159 187.024 208.6 187.685 208.6 188.501C208.6 189.317 209.159 189.978 209.85 189.978Z" fill="white"/>
<path d="M65.9902 36.9678C66.6806 36.9678 67.2402 36.3064 67.2402 35.4905C67.2402 34.6746 66.6806 34.0132 65.9902 34.0132C65.2999 34.0132 64.7402 34.6746 64.7402 35.4905C64.7402 36.3064 65.2999 36.9678 65.9902 36.9678Z" fill="white"/>
<path d="M73.1807 45.4648C73.871 45.4648 74.4307 44.8034 74.4307 43.9875C74.4307 43.1717 73.871 42.5103 73.1807 42.5103C72.4903 42.5103 71.9307 43.1717 71.9307 43.9875C71.9307 44.8034 72.4903 45.4648 73.1807 45.4648Z" fill="white"/>
<path d="M80.3701 53.9617C81.0605 53.9617 81.6201 53.3002 81.6201 52.4844C81.6201 51.6685 81.0605 51.0071 80.3701 51.0071C79.6798 51.0071 79.1201 51.6685 79.1201 52.4844C79.1201 53.3002 79.6798 53.9617 80.3701 53.9617Z" fill="white"/>
<path d="M87.5703 62.4712C88.2607 62.4712 88.8203 61.8098 88.8203 60.9939C88.8203 60.178 88.2607 59.5166 87.5703 59.5166C86.88 59.5166 86.3203 60.178 86.3203 60.9939C86.3203 61.8098 86.88 62.4712 87.5703 62.4712Z" fill="white"/>
<path d="M94.7598 70.969C95.4501 70.969 96.0098 70.3076 96.0098 69.4917C96.0098 68.6758 95.4501 68.0144 94.7598 68.0144C94.0694 68.0144 93.5098 68.6758 93.5098 69.4917C93.5098 70.3076 94.0694 70.969 94.7598 70.969Z" fill="white"/>
<path d="M101.95 79.466C102.641 79.466 103.2 78.8046 103.2 77.9888C103.2 77.1729 102.641 76.5115 101.95 76.5115C101.26 76.5115 100.7 77.1729 100.7 77.9888C100.7 78.8046 101.26 79.466 101.95 79.466Z" fill="white"/>
<path d="M109.15 87.9756C109.841 87.9756 110.4 87.3142 110.4 86.4983C110.4 85.6824 109.841 85.021 109.15 85.021C108.46 85.021 107.9 85.6824 107.9 86.4983C107.9 87.3142 108.46 87.9756 109.15 87.9756Z" fill="white"/>
<path d="M116.34 96.4726C117.03 96.4726 117.59 95.8112 117.59 94.9954C117.59 94.1795 117.03 93.5181 116.34 93.5181C115.649 93.5181 115.09 94.1795 115.09 94.9954C115.09 95.8112 115.649 96.4726 116.34 96.4726Z" fill="white"/>
<path d="M123.53 104.969C124.221 104.969 124.78 104.308 124.78 103.492C124.78 102.676 124.221 102.015 123.53 102.015C122.84 102.015 122.28 102.676 122.28 103.492C122.28 104.308 122.84 104.969 123.53 104.969Z" fill="white"/>
<path d="M131.61 113.042C131.12 113.621 130.33 113.621 129.84 113.042C129.35 112.462 129.35 111.529 129.84 110.95C130.33 110.371 131.12 110.371 131.61 110.95C132.1 111.529 132.1 112.462 131.61 113.042Z" fill="white"/>
<path d="M137.92 121.977C138.61 121.977 139.17 121.315 139.17 120.5C139.17 119.684 138.61 119.022 137.92 119.022C137.23 119.022 136.67 119.684 136.67 120.5C136.67 121.315 137.23 121.977 137.92 121.977Z" fill="white"/>
<path d="M146 130.049C145.51 130.628 144.72 130.628 144.23 130.049C143.74 129.47 143.74 128.536 144.23 127.957C144.72 127.378 145.51 127.378 146 127.957C146.49 128.524 146.49 129.47 146 130.049Z" fill="white"/>
<path d="M152.311 138.971C153.001 138.971 153.561 138.31 153.561 137.494C153.561 136.678 153.001 136.016 152.311 136.016C151.62 136.016 151.061 136.678 151.061 137.494C151.061 138.31 151.62 138.971 152.311 138.971Z" fill="white"/>
<path d="M159.5 147.48C160.19 147.48 160.75 146.819 160.75 146.003C160.75 145.187 160.19 144.526 159.5 144.526C158.81 144.526 158.25 145.187 158.25 146.003C158.25 146.819 158.81 147.48 159.5 147.48Z" fill="white"/>
<path d="M166.69 155.978C167.381 155.978 167.94 155.317 167.94 154.501C167.94 153.685 167.381 153.024 166.69 153.024C166 153.024 165.44 153.685 165.44 154.501C165.44 155.317 166 155.978 166.69 155.978Z" fill="white"/>
<path d="M173.891 164.475C174.581 164.475 175.141 163.814 175.141 162.998C175.141 162.182 174.581 161.521 173.891 161.521C173.2 161.521 172.641 162.182 172.641 162.998C172.641 163.814 173.2 164.475 173.891 164.475Z" fill="white"/>
<path d="M181.08 172.984C181.77 172.984 182.33 172.322 182.33 171.507C182.33 170.691 181.77 170.029 181.08 170.029C180.39 170.029 179.83 170.691 179.83 171.507C179.83 172.322 180.39 172.984 181.08 172.984Z" fill="white"/>
<path d="M188.271 181.482C188.961 181.482 189.521 180.82 189.521 180.004C189.521 179.189 188.961 178.527 188.271 178.527C187.58 178.527 187.021 179.189 187.021 180.004C187.021 180.82 187.58 181.482 188.271 181.482Z" fill="white"/>
<path d="M195.471 189.979C196.161 189.979 196.721 189.317 196.721 188.501C196.721 187.686 196.161 187.024 195.471 187.024C194.78 187.024 194.221 187.686 194.221 188.501C194.221 189.317 194.78 189.979 195.471 189.979Z" fill="white"/>
<path d="M202.66 198.488C203.351 198.488 203.91 197.827 203.91 197.011C203.91 196.195 203.351 195.534 202.66 195.534C201.97 195.534 201.41 196.195 201.41 197.011C201.41 197.827 201.97 198.488 202.66 198.488Z" fill="white"/>
<path d="M58.7998 45.4653C59.4902 45.4653 60.0498 44.8039 60.0498 43.988C60.0498 43.1721 59.4902 42.5107 58.7998 42.5107C58.1094 42.5107 57.5498 43.1721 57.5498 43.988C57.5498 44.8039 58.1094 45.4653 58.7998 45.4653Z" fill="white"/>
<path d="M65.9902 53.9624C66.6806 53.9624 67.2402 53.301 67.2402 52.4851C67.2402 51.6692 66.6806 51.0078 65.9902 51.0078C65.2999 51.0078 64.7402 51.6692 64.7402 52.4851C64.7402 53.301 65.2999 53.9624 65.9902 53.9624Z" fill="white"/>
<path d="M73.1797 62.4719C73.87 62.4719 74.4297 61.8105 74.4297 60.9946C74.4297 60.1787 73.87 59.5173 73.1797 59.5173C72.4893 59.5173 71.9297 60.1787 71.9297 60.9946C71.9297 61.8105 72.4893 62.4719 73.1797 62.4719Z" fill="white"/>
<path d="M80.3701 70.969C81.0605 70.969 81.6201 70.3076 81.6201 69.4917C81.6201 68.6758 81.0605 68.0144 80.3701 68.0144C79.6798 68.0144 79.1201 68.6758 79.1201 69.4917C79.1201 70.3076 79.6798 70.969 80.3701 70.969Z" fill="white"/>
<path d="M87.5703 79.4668C88.2607 79.4668 88.8203 78.8054 88.8203 77.9895C88.8203 77.1736 88.2607 76.5122 87.5703 76.5122C86.88 76.5122 86.3203 77.1736 86.3203 77.9895C86.3203 78.8054 86.88 79.4668 87.5703 79.4668Z" fill="white"/>
<path d="M94.7598 87.9753C95.4501 87.9753 96.0098 87.3139 96.0098 86.498C96.0098 85.6822 95.4501 85.0208 94.7598 85.0208C94.0694 85.0208 93.5098 85.6822 93.5098 86.498C93.5098 87.3139 94.0694 87.9753 94.7598 87.9753Z" fill="white"/>
<path d="M101.95 96.4731C102.641 96.4731 103.2 95.8117 103.2 94.9958C103.2 94.18 102.641 93.5186 101.95 93.5186C101.26 93.5186 100.7 94.18 100.7 94.9958C100.7 95.8117 101.26 96.4731 101.95 96.4731Z" fill="white"/>
<path d="M109.149 104.97C109.84 104.97 110.399 104.309 110.399 103.493C110.399 102.677 109.84 102.016 109.149 102.016C108.459 102.016 107.899 102.677 107.899 103.493C107.899 104.309 108.459 104.97 109.149 104.97Z" fill="white"/>
<path d="M116.34 113.467C117.03 113.467 117.59 112.806 117.59 111.99C117.59 111.174 117.03 110.513 116.34 110.513C115.649 110.513 115.09 111.174 115.09 111.99C115.09 112.806 115.649 113.467 116.34 113.467Z" fill="white"/>
<path d="M123.529 121.978C124.22 121.978 124.779 121.316 124.779 120.5C124.779 119.684 124.22 119.023 123.529 119.023C122.839 119.023 122.279 119.684 122.279 120.5C122.279 121.316 122.839 121.978 123.529 121.978Z" fill="white"/>
<path d="M131.61 130.049C131.12 130.628 130.33 130.628 129.84 130.049C129.35 129.47 129.35 128.536 129.84 127.957C130.33 127.378 131.12 127.378 131.61 127.957C132.1 128.524 132.1 129.47 131.61 130.049Z" fill="white"/>
<path d="M137.92 138.971C138.61 138.971 139.17 138.31 139.17 137.494C139.17 136.678 138.61 136.017 137.92 136.017C137.23 136.017 136.67 136.678 136.67 137.494C136.67 138.31 137.23 138.971 137.92 138.971Z" fill="white"/>
<path d="M145.109 147.48C145.8 147.48 146.359 146.819 146.359 146.003C146.359 145.187 145.8 144.526 145.109 144.526C144.419 144.526 143.859 145.187 143.859 146.003C143.859 146.819 144.419 147.48 145.109 147.48Z" fill="white"/>
<path d="M152.31 155.978C153 155.978 153.56 155.317 153.56 154.501C153.56 153.685 153 153.023 152.31 153.023C151.619 153.023 151.06 153.685 151.06 154.501C151.06 155.317 151.619 155.978 152.31 155.978Z" fill="white"/>
<path d="M159.5 164.476C160.19 164.476 160.75 163.814 160.75 162.999C160.75 162.183 160.19 161.521 159.5 161.521C158.81 161.521 158.25 162.183 158.25 162.999C158.25 163.814 158.81 164.476 159.5 164.476Z" fill="white"/>
<path d="M166.689 172.985C167.38 172.985 167.939 172.323 167.939 171.507C167.939 170.691 167.38 170.03 166.689 170.03C165.999 170.03 165.439 170.691 165.439 171.507C165.439 172.323 165.999 172.985 166.689 172.985Z" fill="white"/>
<path d="M173.89 181.481C174.58 181.481 175.14 180.82 175.14 180.004C175.14 179.188 174.58 178.527 173.89 178.527C173.199 178.527 172.64 179.188 172.64 180.004C172.64 180.82 173.199 181.481 173.89 181.481Z" fill="white"/>
<path d="M181.08 189.979C181.77 189.979 182.33 189.318 182.33 188.502C182.33 187.686 181.77 187.025 181.08 187.025C180.39 187.025 179.83 187.686 179.83 188.502C179.83 189.318 180.39 189.979 181.08 189.979Z" fill="white"/>
<path d="M188.27 198.488C188.96 198.488 189.52 197.827 189.52 197.011C189.52 196.195 188.96 195.533 188.27 195.533C187.579 195.533 187.02 196.195 187.02 197.011C187.02 197.827 187.579 198.488 188.27 198.488Z" fill="white"/>
<path d="M195.47 206.986C196.16 206.986 196.72 206.324 196.72 205.509C196.72 204.693 196.16 204.031 195.47 204.031C194.779 204.031 194.22 204.693 194.22 205.509C194.22 206.324 194.779 206.986 195.47 206.986Z" fill="white"/>
<path d="M51.5996 53.9624C52.29 53.9624 52.8496 53.301 52.8496 52.4851C52.8496 51.6692 52.29 51.0078 51.5996 51.0078C50.9093 51.0078 50.3496 51.6692 50.3496 52.4851C50.3496 53.301 50.9093 53.9624 51.5996 53.9624Z" fill="white"/>
<path d="M58.7998 62.4709C59.4902 62.4709 60.0498 61.8095 60.0498 60.9936C60.0498 60.1778 59.4902 59.5164 58.7998 59.5164C58.1094 59.5164 57.5498 60.1778 57.5498 60.9936C57.5498 61.8095 58.1094 62.4709 58.7998 62.4709Z" fill="white"/>
<path d="M65.9893 70.969C66.6796 70.969 67.2393 70.3076 67.2393 69.4917C67.2393 68.6758 66.6796 68.0144 65.9893 68.0144C65.2989 68.0144 64.7393 68.6758 64.7393 69.4917C64.7393 70.3076 65.2989 70.969 65.9893 70.969Z" fill="white"/>
<path d="M73.1797 79.4668C73.87 79.4668 74.4297 78.8054 74.4297 77.9895C74.4297 77.1736 73.87 76.5122 73.1797 76.5122C72.4893 76.5122 71.9297 77.1736 71.9297 77.9895C71.9297 78.8054 72.4893 79.4668 73.1797 79.4668Z" fill="white"/>
<path d="M80.3691 87.9753C81.0595 87.9753 81.6191 87.3139 81.6191 86.498C81.6191 85.6822 81.0595 85.0208 80.3691 85.0208C79.6788 85.0208 79.1191 85.6822 79.1191 86.498C79.1191 87.3139 79.6788 87.9753 80.3691 87.9753Z" fill="white"/>
<path d="M87.5693 96.4724C88.2597 96.4724 88.8193 95.811 88.8193 94.9951C88.8193 94.1792 88.2597 93.5178 87.5693 93.5178C86.879 93.5178 86.3193 94.1792 86.3193 94.9951C86.3193 95.811 86.879 96.4724 87.5693 96.4724Z" fill="white"/>
<path d="M94.7598 104.97C95.4501 104.97 96.0098 104.309 96.0098 103.493C96.0098 102.677 95.4501 102.016 94.7598 102.016C94.0694 102.016 93.5098 102.677 93.5098 103.493C93.5098 104.309 94.0694 104.97 94.7598 104.97Z" fill="white"/>
<path d="M101.949 113.467C102.64 113.467 103.199 112.806 103.199 111.99C103.199 111.174 102.64 110.513 101.949 110.513C101.259 110.513 100.699 111.174 100.699 111.99C100.699 112.806 101.259 113.467 101.949 113.467Z" fill="white"/>
<path d="M109.149 121.977C109.84 121.977 110.399 121.315 110.399 120.5C110.399 119.684 109.84 119.022 109.149 119.022C108.459 119.022 107.899 119.684 107.899 120.5C107.899 121.315 108.459 121.977 109.149 121.977Z" fill="white"/>
<path d="M117.229 130.049C116.739 130.628 115.949 130.628 115.459 130.049C114.969 129.47 114.969 128.536 115.459 127.957C115.949 127.378 116.739 127.378 117.229 127.957C117.719 128.524 117.719 129.47 117.229 130.049Z" fill="white"/>
<path d="M123.529 138.971C124.22 138.971 124.779 138.31 124.779 137.494C124.779 136.678 124.22 136.017 123.529 136.017C122.839 136.017 122.279 136.678 122.279 137.494C122.279 138.31 122.839 138.971 123.529 138.971Z" fill="white"/>
<path d="M131.61 147.043C131.12 147.623 130.33 147.623 129.84 147.043C129.35 146.464 129.35 145.531 129.84 144.952C130.33 144.373 131.12 144.373 131.61 144.952C132.1 145.531 132.1 146.464 131.61 147.043Z" fill="white"/>
<path d="M137.92 155.978C138.61 155.978 139.17 155.317 139.17 154.501C139.17 153.685 138.61 153.023 137.92 153.023C137.23 153.023 136.67 153.685 136.67 154.501C136.67 155.317 137.23 155.978 137.92 155.978Z" fill="white"/>
<path d="M145.109 164.476C145.8 164.476 146.359 163.814 146.359 162.999C146.359 162.183 145.8 161.521 145.109 161.521C144.419 161.521 143.859 162.183 143.859 162.999C143.859 163.814 144.419 164.476 145.109 164.476Z" fill="white"/>
<path d="M152.31 172.985C153 172.985 153.56 172.323 153.56 171.507C153.56 170.691 153 170.03 152.31 170.03C151.619 170.03 151.06 170.691 151.06 171.507C151.06 172.323 151.619 172.985 152.31 172.985Z" fill="white"/>
<path d="M159.5 181.481C160.19 181.481 160.75 180.82 160.75 180.004C160.75 179.188 160.19 178.527 159.5 178.527C158.81 178.527 158.25 179.188 158.25 180.004C158.25 180.82 158.81 181.481 159.5 181.481Z" fill="white"/>
<path d="M166.689 189.978C167.38 189.978 167.939 189.317 167.939 188.501C167.939 187.685 167.38 187.024 166.689 187.024C165.999 187.024 165.439 187.685 165.439 188.501C165.439 189.317 165.999 189.978 166.689 189.978Z" fill="white"/>
<path d="M173.89 198.488C174.58 198.488 175.14 197.827 175.14 197.011C175.14 196.195 174.58 195.533 173.89 195.533C173.199 195.533 172.64 196.195 172.64 197.011C172.64 197.827 173.199 198.488 173.89 198.488Z" fill="white"/>
<path d="M181.08 206.986C181.77 206.986 182.33 206.324 182.33 205.509C182.33 204.693 181.77 204.031 181.08 204.031C180.39 204.031 179.83 204.693 179.83 205.509C179.83 206.324 180.39 206.986 181.08 206.986Z" fill="white"/>
<path d="M188.27 215.483C188.96 215.483 189.52 214.821 189.52 214.006C189.52 213.19 188.96 212.528 188.27 212.528C187.579 212.528 187.02 213.19 187.02 214.006C187.02 214.821 187.579 215.483 188.27 215.483Z" fill="white"/>
<path d="M44.4102 62.4717C45.1005 62.4717 45.6602 61.8103 45.6602 60.9944C45.6602 60.1785 45.1005 59.5171 44.4102 59.5171C43.7198 59.5171 43.1602 60.1785 43.1602 60.9944C43.1602 61.8103 43.7198 62.4717 44.4102 62.4717Z" fill="white"/>
<path d="M51.6006 70.9687C52.2909 70.9687 52.8506 70.3073 52.8506 69.4914C52.8506 68.6756 52.2909 68.0142 51.6006 68.0142C50.9102 68.0142 50.3506 68.6756 50.3506 69.4914C50.3506 70.3073 50.9102 70.9687 51.6006 70.9687Z" fill="white"/>
<path d="M58.7998 79.4665C59.4902 79.4665 60.0498 78.8051 60.0498 77.9892C60.0498 77.1734 59.4902 76.512 58.7998 76.512C58.1094 76.512 57.5498 77.1734 57.5498 77.9892C57.5498 78.8051 58.1094 79.4665 58.7998 79.4665Z" fill="white"/>
<path d="M65.9902 87.9761C66.6806 87.9761 67.2402 87.3147 67.2402 86.4988C67.2402 85.6829 66.6806 85.0215 65.9902 85.0215C65.2999 85.0215 64.7402 85.6829 64.7402 86.4988C64.7402 87.3147 65.2999 87.9761 65.9902 87.9761Z" fill="white"/>
<path d="M73.1797 96.4729C73.87 96.4729 74.4297 95.8115 74.4297 94.9956C74.4297 94.1797 73.87 93.5183 73.1797 93.5183C72.4893 93.5183 71.9297 94.1797 71.9297 94.9956C71.9297 95.8115 72.4893 96.4729 73.1797 96.4729Z" fill="white"/>
<path d="M80.3701 104.97C81.0605 104.97 81.6201 104.309 81.6201 103.493C81.6201 102.677 81.0605 102.015 80.3701 102.015C79.6798 102.015 79.1201 102.677 79.1201 103.493C79.1201 104.309 79.6798 104.97 80.3701 104.97Z" fill="white"/>
<path d="M87.5703 113.468C88.2607 113.468 88.8203 112.806 88.8203 111.99C88.8203 111.175 88.2607 110.513 87.5703 110.513C86.88 110.513 86.3203 111.175 86.3203 111.99C86.3203 112.806 86.88 113.468 87.5703 113.468Z" fill="white"/>
<path d="M94.7598 121.977C95.4501 121.977 96.0098 121.315 96.0098 120.499C96.0098 119.683 95.4501 119.022 94.7598 119.022C94.0694 119.022 93.5098 119.683 93.5098 120.499C93.5098 121.315 94.0694 121.977 94.7598 121.977Z" fill="white"/>
<path d="M102.841 130.048C102.351 130.627 101.561 130.627 101.071 130.048C100.581 129.469 100.581 128.536 101.071 127.957C101.561 127.377 102.351 127.377 102.841 127.957C103.331 128.524 103.331 129.469 102.841 130.048Z" fill="white"/>
<path d="M109.15 138.971C109.841 138.971 110.4 138.31 110.4 137.494C110.4 136.678 109.841 136.017 109.15 136.017C108.46 136.017 107.9 136.678 107.9 137.494C107.9 138.31 108.46 138.971 109.15 138.971Z" fill="white"/>
<path d="M116.34 147.481C117.03 147.481 117.59 146.819 117.59 146.003C117.59 145.188 117.03 144.526 116.34 144.526C115.649 144.526 115.09 145.188 115.09 146.003C115.09 146.819 115.649 147.481 116.34 147.481Z" fill="white"/>
<path d="M123.53 155.978C124.221 155.978 124.78 155.316 124.78 154.5C124.78 153.685 124.221 153.023 123.53 153.023C122.84 153.023 122.28 153.685 122.28 154.5C122.28 155.316 122.84 155.978 123.53 155.978Z" fill="white"/>
<path d="M131.61 164.05C131.12 164.629 130.33 164.629 129.84 164.05C129.35 163.47 129.35 162.537 129.84 161.958C130.33 161.379 131.12 161.379 131.61 161.958C132.1 162.537 132.1 163.47 131.61 164.05Z" fill="white"/>
<path d="M137.92 172.984C138.61 172.984 139.17 172.323 139.17 171.507C139.17 170.691 138.61 170.03 137.92 170.03C137.23 170.03 136.67 170.691 136.67 171.507C136.67 172.323 137.23 172.984 137.92 172.984Z" fill="white"/>
<path d="M145.11 181.482C145.801 181.482 146.36 180.821 146.36 180.005C146.36 179.189 145.801 178.528 145.11 178.528C144.42 178.528 143.86 179.189 143.86 180.005C143.86 180.821 144.42 181.482 145.11 181.482Z" fill="white"/>
<path d="M152.311 189.979C153.001 189.979 153.561 189.318 153.561 188.502C153.561 187.686 153.001 187.024 152.311 187.024C151.62 187.024 151.061 187.686 151.061 188.502C151.061 189.318 151.62 189.979 152.311 189.979Z" fill="white"/>
<path d="M159.5 198.488C160.19 198.488 160.75 197.826 160.75 197.01C160.75 196.195 160.19 195.533 159.5 195.533C158.81 195.533 158.25 196.195 158.25 197.01C158.25 197.826 158.81 198.488 159.5 198.488Z" fill="white"/>
<path d="M166.69 206.986C167.381 206.986 167.94 206.324 167.94 205.508C167.94 204.692 167.381 204.031 166.69 204.031C166 204.031 165.44 204.692 165.44 205.508C165.44 206.324 166 206.986 166.69 206.986Z" fill="white"/>
<path d="M173.891 215.483C174.581 215.483 175.141 214.822 175.141 214.006C175.141 213.19 174.581 212.529 173.891 212.529C173.2 212.529 172.641 213.19 172.641 214.006C172.641 214.822 173.2 215.483 173.891 215.483Z" fill="white"/>
<path d="M181.08 223.992C181.77 223.992 182.33 223.331 182.33 222.515C182.33 221.699 181.77 221.038 181.08 221.038C180.39 221.038 179.83 221.699 179.83 222.515C179.83 223.331 180.39 223.992 181.08 223.992Z" fill="white"/>
<path d="M37.2197 70.968C37.9101 70.968 38.4697 70.3066 38.4697 69.4907C38.4697 68.6748 37.9101 68.0134 37.2197 68.0134C36.5294 68.0134 35.9697 68.6748 35.9697 69.4907C35.9697 70.3066 36.5294 70.968 37.2197 70.968Z" fill="white"/>
<path d="M44.4102 79.4648C45.1005 79.4648 45.6602 78.8034 45.6602 77.9875C45.6602 77.1717 45.1005 76.5103 44.4102 76.5103C43.7198 76.5103 43.1602 77.1717 43.1602 77.9875C43.1602 78.8034 43.7198 79.4648 44.4102 79.4648Z" fill="white"/>
<path d="M51.5996 87.9743C52.29 87.9743 52.8496 87.3129 52.8496 86.4971C52.8496 85.6812 52.29 85.0198 51.5996 85.0198C50.9093 85.0198 50.3496 85.6812 50.3496 86.4971C50.3496 87.3129 50.9093 87.9743 51.5996 87.9743Z" fill="white"/>
<path d="M58.7998 96.4721C59.4902 96.4721 60.0498 95.8107 60.0498 94.9949C60.0498 94.179 59.4902 93.5176 58.7998 93.5176C58.1094 93.5176 57.5498 94.179 57.5498 94.9949C57.5498 95.8107 58.1094 96.4721 58.7998 96.4721Z" fill="white"/>
<path d="M65.9902 104.969C66.6806 104.969 67.2402 104.308 67.2402 103.492C67.2402 102.676 66.6806 102.015 65.9902 102.015C65.2999 102.015 64.7402 102.676 64.7402 103.492C64.7402 104.308 65.2999 104.969 65.9902 104.969Z" fill="white"/>
<path d="M73.1797 113.466C73.87 113.466 74.4297 112.805 74.4297 111.989C74.4297 111.173 73.87 110.511 73.1797 110.511C72.4893 110.511 71.9297 111.173 71.9297 111.989C71.9297 112.805 72.4893 113.466 73.1797 113.466Z" fill="white"/>
<path d="M80.3701 121.976C81.0605 121.976 81.6201 121.314 81.6201 120.498C81.6201 119.682 81.0605 119.021 80.3701 119.021C79.6798 119.021 79.1201 119.682 79.1201 120.498C79.1201 121.314 79.6798 121.976 80.3701 121.976Z" fill="white"/>
<path d="M88.45 130.048C87.96 130.627 87.17 130.627 86.68 130.048C86.19 129.469 86.19 128.535 86.68 127.956C87.17 127.377 87.96 127.377 88.45 127.956C88.94 128.523 88.94 129.469 88.45 130.048Z" fill="white"/>
<path d="M94.7598 138.97C95.4501 138.97 96.0098 138.309 96.0098 137.493C96.0098 136.677 95.4501 136.016 94.7598 136.016C94.0694 136.016 93.5098 136.677 93.5098 137.493C93.5098 138.309 94.0694 138.97 94.7598 138.97Z" fill="white"/>
<path d="M101.95 147.48C102.641 147.48 103.2 146.819 103.2 146.003C103.2 145.187 102.641 144.525 101.95 144.525C101.26 144.525 100.7 145.187 100.7 146.003C100.7 146.819 101.26 147.48 101.95 147.48Z" fill="white"/>
<path d="M109.149 155.977C109.84 155.977 110.399 155.316 110.399 154.5C110.399 153.684 109.84 153.022 109.149 153.022C108.459 153.022 107.899 153.684 107.899 154.5C107.899 155.316 108.459 155.977 109.149 155.977Z" fill="white"/>
<path d="M116.34 164.474C117.03 164.474 117.59 163.812 117.59 162.997C117.59 162.181 117.03 161.519 116.34 161.519C115.649 161.519 115.09 162.181 115.09 162.997C115.09 163.812 115.649 164.474 116.34 164.474Z" fill="white"/>
<path d="M123.529 172.983C124.22 172.983 124.779 172.321 124.779 171.505C124.779 170.689 124.22 170.028 123.529 170.028C122.839 170.028 122.279 170.689 122.279 171.505C122.279 172.321 122.839 172.983 123.529 172.983Z" fill="white"/>
<path d="M131.61 181.054C131.12 181.634 130.33 181.634 129.84 181.054C129.35 180.475 129.35 179.542 129.84 178.963C130.33 178.384 131.12 178.384 131.61 178.963C132.1 179.53 132.1 180.475 131.61 181.054Z" fill="white"/>
<path d="M137.92 189.978C138.61 189.978 139.17 189.317 139.17 188.501C139.17 187.685 138.61 187.024 137.92 187.024C137.23 187.024 136.67 187.685 136.67 188.501C136.67 189.317 137.23 189.978 137.92 189.978Z" fill="white"/>
<path d="M145.109 198.487C145.8 198.487 146.359 197.825 146.359 197.01C146.359 196.194 145.8 195.532 145.109 195.532C144.419 195.532 143.859 196.194 143.859 197.01C143.859 197.825 144.419 198.487 145.109 198.487Z" fill="white"/>
<path d="M152.31 206.984C153 206.984 153.56 206.322 153.56 205.507C153.56 204.691 153 204.029 152.31 204.029C151.619 204.029 151.06 204.691 151.06 205.507C151.06 206.322 151.619 206.984 152.31 206.984Z" fill="white"/>
<path d="M159.5 215.482C160.19 215.482 160.75 214.82 160.75 214.004C160.75 213.189 160.19 212.527 159.5 212.527C158.81 212.527 158.25 213.189 158.25 214.004C158.25 214.82 158.81 215.482 159.5 215.482Z" fill="white"/>
<path d="M166.689 223.991C167.38 223.991 167.939 223.33 167.939 222.514C167.939 221.698 167.38 221.037 166.689 221.037C165.999 221.037 165.439 221.698 165.439 222.514C165.439 223.33 165.999 223.991 166.689 223.991Z" fill="white"/>
<path d="M173.89 232.488C174.58 232.488 175.14 231.827 175.14 231.011C175.14 230.195 174.58 229.534 173.89 229.534C173.199 229.534 172.64 230.195 172.64 231.011C172.64 231.827 173.199 232.488 173.89 232.488Z" fill="white"/>
<path d="M30.91 79.0401C30.42 79.6192 29.63 79.6192 29.14 79.0401C28.65 78.461 28.65 77.5273 29.14 76.9482C29.63 76.3691 30.42 76.3691 30.91 76.9482C31.4 77.5273 31.4 78.461 30.91 79.0401Z" fill="white"/>
<path d="M37.2197 87.9748C37.9101 87.9748 38.4697 87.3134 38.4697 86.4975C38.4697 85.6817 37.9101 85.0203 37.2197 85.0203C36.5294 85.0203 35.9697 85.6817 35.9697 86.4975C35.9697 87.3134 36.5294 87.9748 37.2197 87.9748Z" fill="white"/>
<path d="M44.4102 96.4726C45.1005 96.4726 45.6602 95.8112 45.6602 94.9954C45.6602 94.1795 45.1005 93.5181 44.4102 93.5181C43.7198 93.5181 43.1602 94.1795 43.1602 94.9954C43.1602 95.8112 43.7198 96.4726 44.4102 96.4726Z" fill="white"/>
<path d="M51.5996 104.97C52.29 104.97 52.8496 104.308 52.8496 103.492C52.8496 102.677 52.29 102.015 51.5996 102.015C50.9093 102.015 50.3496 102.677 50.3496 103.492C50.3496 104.308 50.9093 104.97 51.5996 104.97Z" fill="white"/>
<path d="M58.7998 113.467C59.4902 113.467 60.0498 112.805 60.0498 111.989C60.0498 111.173 59.4902 110.512 58.7998 110.512C58.1094 110.512 57.5498 111.173 57.5498 111.989C57.5498 112.805 58.1094 113.467 58.7998 113.467Z" fill="white"/>
<path d="M65.9902 121.976C66.6806 121.976 67.2402 121.315 67.2402 120.499C67.2402 119.683 66.6806 119.021 65.9902 119.021C65.2999 119.021 64.7402 119.683 64.7402 120.499C64.7402 121.315 65.2999 121.976 65.9902 121.976Z" fill="white"/>
<path d="M74.0701 130.048C73.5801 130.627 72.7901 130.627 72.3001 130.048C71.8101 129.469 71.8101 128.535 72.3001 127.956C72.7901 127.377 73.5801 127.377 74.0701 127.956C74.5601 128.524 74.5601 129.469 74.0701 130.048Z" fill="white"/>
<path d="M80.3701 138.971C81.0605 138.971 81.6201 138.31 81.6201 137.494C81.6201 136.678 81.0605 136.016 80.3701 136.016C79.6798 136.016 79.1201 136.678 79.1201 137.494C79.1201 138.31 79.6798 138.971 80.3701 138.971Z" fill="white"/>
<path d="M87.5703 147.48C88.2607 147.48 88.8203 146.819 88.8203 146.003C88.8203 145.187 88.2607 144.526 87.5703 144.526C86.88 144.526 86.3203 145.187 86.3203 146.003C86.3203 146.819 86.88 147.48 87.5703 147.48Z" fill="white"/>
<path d="M94.7598 155.978C95.4501 155.978 96.0098 155.316 96.0098 154.5C96.0098 153.684 95.4501 153.023 94.7598 153.023C94.0694 153.023 93.5098 153.684 93.5098 154.5C93.5098 155.316 94.0694 155.978 94.7598 155.978Z" fill="white"/>
<path d="M101.95 164.474C102.641 164.474 103.2 163.813 103.2 162.997C103.2 162.181 102.641 161.52 101.95 161.52C101.26 161.52 100.7 162.181 100.7 162.997C100.7 163.813 101.26 164.474 101.95 164.474Z" fill="white"/>
<path d="M109.15 172.984C109.841 172.984 110.4 172.322 110.4 171.507C110.4 170.691 109.841 170.029 109.15 170.029C108.46 170.029 107.9 170.691 107.9 171.507C107.9 172.322 108.46 172.984 109.15 172.984Z" fill="white"/>
<path d="M116.34 181.482C117.03 181.482 117.59 180.82 117.59 180.004C117.59 179.189 117.03 178.527 116.34 178.527C115.649 178.527 115.09 179.189 115.09 180.004C115.09 180.82 115.649 181.482 116.34 181.482Z" fill="white"/>
<path d="M123.53 189.979C124.221 189.979 124.78 189.317 124.78 188.501C124.78 187.686 124.221 187.024 123.53 187.024C122.84 187.024 122.28 187.686 122.28 188.501C122.28 189.317 122.84 189.979 123.53 189.979Z" fill="white"/>
<path d="M131.61 198.051C131.12 198.63 130.33 198.63 129.84 198.051C129.35 197.471 129.35 196.538 129.84 195.959C130.33 195.38 131.12 195.38 131.61 195.959C132.1 196.538 132.1 197.471 131.61 198.051Z" fill="white"/>
<path d="M137.92 206.984C138.61 206.984 139.17 206.323 139.17 205.507C139.17 204.691 138.61 204.03 137.92 204.03C137.23 204.03 136.67 204.691 136.67 205.507C136.67 206.323 137.23 206.984 137.92 206.984Z" fill="white"/>
<path d="M145.11 215.482C145.801 215.482 146.36 214.821 146.36 214.005C146.36 213.189 145.801 212.528 145.11 212.528C144.42 212.528 143.86 213.189 143.86 214.005C143.86 214.821 144.42 215.482 145.11 215.482Z" fill="white"/>
<path d="M152.31 223.992C153 223.992 153.56 223.33 153.56 222.514C153.56 221.699 153 221.037 152.31 221.037C151.619 221.037 151.06 221.699 151.06 222.514C151.06 223.33 151.619 223.992 152.31 223.992Z" fill="white"/>
<path d="M159.5 232.489C160.19 232.489 160.75 231.827 160.75 231.011C160.75 230.196 160.19 229.534 159.5 229.534C158.81 229.534 158.25 230.196 158.25 231.011C158.25 231.827 158.81 232.489 159.5 232.489Z" fill="white"/>
<path d="M166.69 240.987C167.381 240.987 167.94 240.325 167.94 239.509C167.94 238.693 167.381 238.032 166.69 238.032C166 238.032 165.44 238.693 165.44 239.509C165.44 240.325 166 240.987 166.69 240.987Z" fill="white"/>
<path d="M22.8301 87.9756C23.5204 87.9756 24.0801 87.3142 24.0801 86.4983C24.0801 85.6824 23.5204 85.021 22.8301 85.021C22.1397 85.021 21.5801 85.6824 21.5801 86.4983C21.5801 87.3142 22.1397 87.9756 22.8301 87.9756Z" fill="white"/>
<path d="M30.91 96.0359C30.42 96.615 29.63 96.615 29.14 96.0359C28.65 95.4568 28.65 94.5232 29.14 93.9441C29.63 93.365 30.42 93.365 30.91 93.9441C31.4 94.5232 31.4 95.4568 30.91 96.0359Z" fill="white"/>
<path d="M37.2197 104.969C37.9101 104.969 38.4697 104.308 38.4697 103.492C38.4697 102.676 37.9101 102.015 37.2197 102.015C36.5294 102.015 35.9697 102.676 35.9697 103.492C35.9697 104.308 36.5294 104.969 37.2197 104.969Z" fill="white"/>
<path d="M44.4102 113.467C45.1005 113.467 45.6602 112.806 45.6602 111.99C45.6602 111.174 45.1005 110.513 44.4102 110.513C43.7198 110.513 43.1602 111.174 43.1602 111.99C43.1602 112.806 43.7198 113.467 44.4102 113.467Z" fill="white"/>
<path d="M51.5996 121.977C52.29 121.977 52.8496 121.315 52.8496 120.5C52.8496 119.684 52.29 119.022 51.5996 119.022C50.9093 119.022 50.3496 119.684 50.3496 120.5C50.3496 121.315 50.9093 121.977 51.5996 121.977Z" fill="white"/>
<path d="M59.6805 130.049C59.1905 130.628 58.4005 130.628 57.9105 130.049C57.4205 129.47 57.4205 128.536 57.9105 127.957C58.4005 127.378 59.1905 127.378 59.6805 127.957C60.1705 128.524 60.1705 129.47 59.6805 130.049Z" fill="white"/>
<path d="M65.9902 138.972C66.6806 138.972 67.2402 138.31 67.2402 137.494C67.2402 136.678 66.6806 136.017 65.9902 136.017C65.2999 136.017 64.7402 136.678 64.7402 137.494C64.7402 138.31 65.2999 138.972 65.9902 138.972Z" fill="white"/>
<path d="M73.1797 147.48C73.87 147.48 74.4297 146.819 74.4297 146.003C74.4297 145.187 73.87 144.526 73.1797 144.526C72.4893 144.526 71.9297 145.187 71.9297 146.003C71.9297 146.819 72.4893 147.48 73.1797 147.48Z" fill="white"/>
<path d="M80.3701 155.978C81.0605 155.978 81.6201 155.317 81.6201 154.501C81.6201 153.685 81.0605 153.024 80.3701 153.024C79.6798 153.024 79.1201 153.685 79.1201 154.501C79.1201 155.317 79.6798 155.978 80.3701 155.978Z" fill="white"/>
<path d="M87.5703 164.475C88.2607 164.475 88.8203 163.814 88.8203 162.998C88.8203 162.182 88.2607 161.521 87.5703 161.521C86.88 161.521 86.3203 162.182 86.3203 162.998C86.3203 163.814 86.88 164.475 87.5703 164.475Z" fill="white"/>
<path d="M94.7598 172.985C95.4501 172.985 96.0098 172.323 96.0098 171.507C96.0098 170.691 95.4501 170.03 94.7598 170.03C94.0694 170.03 93.5098 170.691 93.5098 171.507C93.5098 172.323 94.0694 172.985 94.7598 172.985Z" fill="white"/>
<path d="M101.95 181.482C102.641 181.482 103.2 180.82 103.2 180.004C103.2 179.189 102.641 178.527 101.95 178.527C101.26 178.527 100.7 179.189 100.7 180.004C100.7 180.82 101.26 181.482 101.95 181.482Z" fill="white"/>
<path d="M109.15 189.979C109.841 189.979 110.4 189.317 110.4 188.501C110.4 187.686 109.841 187.024 109.15 187.024C108.46 187.024 107.9 187.686 107.9 188.501C107.9 189.317 108.46 189.979 109.15 189.979Z" fill="white"/>
<path d="M116.34 198.488C117.03 198.488 117.59 197.827 117.59 197.011C117.59 196.195 117.03 195.534 116.34 195.534C115.649 195.534 115.09 196.195 115.09 197.011C115.09 197.827 115.649 198.488 116.34 198.488Z" fill="white"/>
<path d="M123.53 206.986C124.221 206.986 124.78 206.325 124.78 205.509C124.78 204.693 124.221 204.031 123.53 204.031C122.84 204.031 122.28 204.693 122.28 205.509C122.28 206.325 122.84 206.986 123.53 206.986Z" fill="white"/>
<path d="M131.61 215.058C131.12 215.637 130.33 215.637 129.84 215.058C129.35 214.479 129.35 213.545 129.84 212.966C130.33 212.387 131.12 212.387 131.61 212.966C132.1 213.545 132.1 214.479 131.61 215.058Z" fill="white"/>
<path d="M137.92 223.992C138.61 223.992 139.17 223.33 139.17 222.514C139.17 221.699 138.61 221.037 137.92 221.037C137.23 221.037 136.67 221.699 136.67 222.514C136.67 223.33 137.23 223.992 137.92 223.992Z" fill="white"/>
<path d="M145.11 232.489C145.801 232.489 146.36 231.828 146.36 231.012C146.36 230.196 145.801 229.535 145.11 229.535C144.42 229.535 143.86 230.196 143.86 231.012C143.86 231.828 144.42 232.489 145.11 232.489Z" fill="white"/>
<path d="M152.311 240.987C153.001 240.987 153.561 240.326 153.561 239.51C153.561 238.694 153.001 238.033 152.311 238.033C151.62 238.033 151.061 238.694 151.061 239.51C151.061 240.326 151.62 240.987 152.311 240.987Z" fill="white"/>
<path d="M160.39 249.058C159.9 249.637 159.11 249.637 158.62 249.058C158.13 248.479 158.13 247.546 158.62 246.967C159.11 246.387 159.9 246.387 160.39 246.967C160.87 247.546 160.87 248.479 160.39 249.058Z" fill="white"/>
<path d="M15.6396 96.4724C16.33 96.4724 16.8896 95.811 16.8896 94.9951C16.8896 94.1792 16.33 93.5178 15.6396 93.5178C14.9493 93.5178 14.3896 94.1792 14.3896 94.9951C14.3896 95.811 14.9493 96.4724 15.6396 96.4724Z" fill="white"/>
<path d="M22.8301 104.97C23.5204 104.97 24.0801 104.308 24.0801 103.492C24.0801 102.677 23.5204 102.015 22.8301 102.015C22.1397 102.015 21.5801 102.677 21.5801 103.492C21.5801 104.308 22.1397 104.97 22.8301 104.97Z" fill="white"/>
<path d="M30.91 113.042C30.42 113.621 29.63 113.621 29.14 113.042C28.65 112.462 28.65 111.529 29.14 110.95C29.63 110.371 30.42 110.371 30.91 110.95C31.4 111.529 31.4 112.462 30.91 113.042Z" fill="white"/>
<path d="M37.2197 121.977C37.9101 121.977 38.4697 121.316 38.4697 120.5C38.4697 119.684 37.9101 119.022 37.2197 119.022C36.5294 119.022 35.9697 119.684 35.9697 120.5C35.9697 121.316 36.5294 121.977 37.2197 121.977Z" fill="white"/>
<path d="M45.2898 130.049C44.7998 130.628 44.0098 130.628 43.5198 130.049C43.0298 129.47 43.0298 128.536 43.5198 127.957C44.0098 127.378 44.7998 127.378 45.2898 127.957C45.7798 128.524 45.7798 129.47 45.2898 130.049Z" fill="white"/>
<path d="M51.5996 138.971C52.29 138.971 52.8496 138.31 52.8496 137.494C52.8496 136.678 52.29 136.016 51.5996 136.016C50.9093 136.016 50.3496 136.678 50.3496 137.494C50.3496 138.31 50.9093 138.971 51.5996 138.971Z" fill="white"/>
<path d="M58.7998 147.48C59.4902 147.48 60.0498 146.819 60.0498 146.003C60.0498 145.187 59.4902 144.526 58.7998 144.526C58.1094 144.526 57.5498 145.187 57.5498 146.003C57.5498 146.819 58.1094 147.48 58.7998 147.48Z" fill="white"/>
<path d="M65.9893 155.978C66.6796 155.978 67.2393 155.317 67.2393 154.501C67.2393 153.685 66.6796 153.024 65.9893 153.024C65.2989 153.024 64.7393 153.685 64.7393 154.501C64.7393 155.317 65.2989 155.978 65.9893 155.978Z" fill="white"/>
<path d="M73.1797 164.475C73.87 164.475 74.4297 163.814 74.4297 162.998C74.4297 162.182 73.87 161.521 73.1797 161.521C72.4893 161.521 71.9297 162.182 71.9297 162.998C71.9297 163.814 72.4893 164.475 73.1797 164.475Z" fill="white"/>
<path d="M80.3701 172.985C81.0605 172.985 81.6201 172.323 81.6201 171.508C81.6201 170.692 81.0605 170.03 80.3701 170.03C79.6798 170.03 79.1201 170.692 79.1201 171.508C79.1201 172.323 79.6798 172.985 80.3701 172.985Z" fill="white"/>
<path d="M87.5693 181.482C88.2597 181.482 88.8193 180.82 88.8193 180.004C88.8193 179.189 88.2597 178.527 87.5693 178.527C86.879 178.527 86.3193 179.189 86.3193 180.004C86.3193 180.82 86.879 181.482 87.5693 181.482Z" fill="white"/>
<path d="M94.7598 189.979C95.4501 189.979 96.0098 189.317 96.0098 188.501C96.0098 187.686 95.4501 187.024 94.7598 187.024C94.0694 187.024 93.5098 187.686 93.5098 188.501C93.5098 189.317 94.0694 189.979 94.7598 189.979Z" fill="white"/>
<path d="M101.949 198.488C102.64 198.488 103.199 197.827 103.199 197.011C103.199 196.195 102.64 195.534 101.949 195.534C101.259 195.534 100.699 196.195 100.699 197.011C100.699 197.827 101.259 198.488 101.949 198.488Z" fill="white"/>
<path d="M109.149 206.986C109.84 206.986 110.399 206.325 110.399 205.509C110.399 204.693 109.84 204.031 109.149 204.031C108.459 204.031 107.899 204.693 107.899 205.509C107.899 206.325 108.459 206.986 109.149 206.986Z" fill="white"/>
<path d="M116.34 215.483C117.03 215.483 117.59 214.822 117.59 214.006C117.59 213.19 117.03 212.529 116.34 212.529C115.649 212.529 115.09 213.19 115.09 214.006C115.09 214.822 115.649 215.483 116.34 215.483Z" fill="white"/>
<path d="M123.529 223.992C124.22 223.992 124.779 223.33 124.779 222.514C124.779 221.699 124.22 221.037 123.529 221.037C122.839 221.037 122.279 221.699 122.279 222.514C122.279 223.33 122.839 223.992 123.529 223.992Z" fill="white"/>
<path d="M131.61 232.064C131.12 232.643 130.33 232.643 129.84 232.064C129.35 231.484 129.35 230.551 129.84 229.972C130.33 229.393 131.12 229.393 131.61 229.972C132.1 230.539 132.1 231.484 131.61 232.064Z" fill="white"/>
<path d="M137.92 240.987C138.61 240.987 139.17 240.326 139.17 239.51C139.17 238.694 138.61 238.033 137.92 238.033C137.23 238.033 136.67 238.694 136.67 239.51C136.67 240.326 137.23 240.987 137.92 240.987Z" fill="white"/>
<path d="M146 249.058C145.51 249.637 144.72 249.637 144.23 249.058C143.74 248.479 143.74 247.546 144.23 246.967C144.72 246.387 145.51 246.387 146 246.967C146.49 247.546 146.49 248.479 146 249.058Z" fill="white"/>
<path d="M152.31 257.993C153 257.993 153.56 257.332 153.56 256.516C153.56 255.7 153 255.039 152.31 255.039C151.619 255.039 151.06 255.7 151.06 256.516C151.06 257.332 151.619 257.993 152.31 257.993Z" fill="white"/>
<path d="M8.44043 104.97C9.13079 104.97 9.69043 104.309 9.69043 103.493C9.69043 102.677 9.13079 102.016 8.44043 102.016C7.75007 102.016 7.19043 102.677 7.19043 103.493C7.19043 104.309 7.75007 104.97 8.44043 104.97Z" fill="white"/>
<path d="M15.6406 113.467C16.331 113.467 16.8906 112.806 16.8906 111.99C16.8906 111.174 16.331 110.513 15.6406 110.513C14.9503 110.513 14.3906 111.174 14.3906 111.99C14.3906 112.806 14.9503 113.467 15.6406 113.467Z" fill="white"/>
<path d="M22.8301 121.978C23.5204 121.978 24.0801 121.316 24.0801 120.5C24.0801 119.684 23.5204 119.023 22.8301 119.023C22.1397 119.023 21.5801 119.684 21.5801 120.5C21.5801 121.316 22.1397 121.978 22.8301 121.978Z" fill="white"/>
<path d="M30.91 130.049C30.42 130.628 29.63 130.628 29.14 130.049C28.65 129.47 28.65 128.536 29.14 127.957C29.63 127.378 30.42 127.378 30.91 127.957C31.4 128.524 31.4 129.47 30.91 130.049Z" fill="white"/>
<path d="M37.2207 138.971C37.9111 138.971 38.4707 138.31 38.4707 137.494C38.4707 136.678 37.9111 136.017 37.2207 136.017C36.5303 136.017 35.9707 136.678 35.9707 137.494C35.9707 138.31 36.5303 138.971 37.2207 138.971Z" fill="white"/>
<path d="M44.4102 147.48C45.1005 147.48 45.6602 146.819 45.6602 146.003C45.6602 145.187 45.1005 144.526 44.4102 144.526C43.7198 144.526 43.1602 145.187 43.1602 146.003C43.1602 146.819 43.7198 147.48 44.4102 147.48Z" fill="white"/>
<path d="M51.6006 155.978C52.2909 155.978 52.8506 155.317 52.8506 154.501C52.8506 153.685 52.2909 153.023 51.6006 153.023C50.9102 153.023 50.3506 153.685 50.3506 154.501C50.3506 155.317 50.9102 155.978 51.6006 155.978Z" fill="white"/>
<path d="M58.8008 164.476C59.4911 164.476 60.0508 163.814 60.0508 162.999C60.0508 162.183 59.4911 161.521 58.8008 161.521C58.1104 161.521 57.5508 162.183 57.5508 162.999C57.5508 163.814 58.1104 164.476 58.8008 164.476Z" fill="white"/>
<path d="M65.9902 172.985C66.6806 172.985 67.2402 172.323 67.2402 171.507C67.2402 170.691 66.6806 170.03 65.9902 170.03C65.2999 170.03 64.7402 170.691 64.7402 171.507C64.7402 172.323 65.2999 172.985 65.9902 172.985Z" fill="white"/>
<path d="M73.1807 181.482C73.871 181.482 74.4307 180.821 74.4307 180.005C74.4307 179.189 73.871 178.528 73.1807 178.528C72.4903 178.528 71.9307 179.189 71.9307 180.005C71.9307 180.821 72.4903 181.482 73.1807 181.482Z" fill="white"/>
<path d="M80.3701 189.979C81.0605 189.979 81.6201 189.318 81.6201 188.502C81.6201 187.686 81.0605 187.025 80.3701 187.025C79.6798 187.025 79.1201 187.686 79.1201 188.502C79.1201 189.318 79.6798 189.979 80.3701 189.979Z" fill="white"/>
<path d="M87.5703 198.488C88.2607 198.488 88.8203 197.827 88.8203 197.011C88.8203 196.195 88.2607 195.533 87.5703 195.533C86.88 195.533 86.3203 196.195 86.3203 197.011C86.3203 197.827 86.88 198.488 87.5703 198.488Z" fill="white"/>
<path d="M94.7607 206.986C95.4511 206.986 96.0107 206.324 96.0107 205.509C96.0107 204.693 95.4511 204.031 94.7607 204.031C94.0704 204.031 93.5107 204.693 93.5107 205.509C93.5107 206.324 94.0704 206.986 94.7607 206.986Z" fill="white"/>
<path d="M101.95 215.484C102.641 215.484 103.2 214.822 103.2 214.006C103.2 213.19 102.641 212.529 101.95 212.529C101.26 212.529 100.7 213.19 100.7 214.006C100.7 214.822 101.26 215.484 101.95 215.484Z" fill="white"/>
<path d="M109.15 223.992C109.841 223.992 110.4 223.331 110.4 222.515C110.4 221.699 109.841 221.038 109.15 221.038C108.46 221.038 107.9 221.699 107.9 222.515C107.9 223.331 108.46 223.992 109.15 223.992Z" fill="white"/>
<path d="M116.341 232.489C117.031 232.489 117.591 231.828 117.591 231.012C117.591 230.196 117.031 229.535 116.341 229.535C115.65 229.535 115.091 230.196 115.091 231.012C115.091 231.828 115.65 232.489 116.341 232.489Z" fill="white"/>
<path d="M123.53 240.987C124.221 240.987 124.78 240.326 124.78 239.51C124.78 238.694 124.221 238.032 123.53 238.032C122.84 238.032 122.28 238.694 122.28 239.51C122.28 240.326 122.84 240.987 123.53 240.987Z" fill="white"/>
<path d="M131.61 249.059C131.12 249.638 130.33 249.638 129.84 249.059C129.35 248.48 129.35 247.546 129.84 246.967C130.33 246.388 131.12 246.388 131.61 246.967C132.1 247.546 132.1 248.48 131.61 249.059Z" fill="white"/>
<path d="M137.92 257.994C138.61 257.994 139.17 257.332 139.17 256.516C139.17 255.7 138.61 255.039 137.92 255.039C137.23 255.039 136.67 255.7 136.67 256.516C136.67 257.332 137.23 257.994 137.92 257.994Z" fill="white"/>
<path d="M145.11 266.491C145.801 266.491 146.36 265.829 146.36 265.013C146.36 264.198 145.801 263.536 145.11 263.536C144.42 263.536 143.86 264.198 143.86 265.013C143.86 265.829 144.42 266.491 145.11 266.491Z" fill="white"/>
<path d="M1.25 113.468C1.94036 113.468 2.5 112.807 2.5 111.991C2.5 111.175 1.94036 110.513 1.25 110.513C0.559644 110.513 0 111.175 0 111.991C0 112.807 0.559644 113.468 1.25 113.468Z" fill="white"/>
<path d="M8.44043 121.977C9.13079 121.977 9.69043 121.315 9.69043 120.499C9.69043 119.683 9.13079 119.022 8.44043 119.022C7.75007 119.022 7.19043 119.683 7.19043 120.499C7.19043 121.315 7.75007 121.977 8.44043 121.977Z" fill="white"/>
<path d="M16.5203 130.048C16.0303 130.627 15.2403 130.627 14.7503 130.048C14.2603 129.469 14.2603 128.536 14.7503 127.957C15.2403 127.377 16.0303 127.377 16.5203 127.957C17.0103 128.524 17.0103 129.469 16.5203 130.048Z" fill="white"/>
<path d="M22.8301 138.972C23.5204 138.972 24.0801 138.311 24.0801 137.495C24.0801 136.679 23.5204 136.018 22.8301 136.018C22.1397 136.018 21.5801 136.679 21.5801 137.495C21.5801 138.311 22.1397 138.972 22.8301 138.972Z" fill="white"/>
<path d="M30.91 147.044C30.42 147.623 29.63 147.623 29.14 147.044C28.65 146.465 28.65 145.531 29.14 144.952C29.63 144.373 30.42 144.373 30.91 144.952C31.4 145.531 31.4 146.465 30.91 147.044Z" fill="white"/>
<path d="M37.2197 155.978C37.9101 155.978 38.4697 155.316 38.4697 154.5C38.4697 153.685 37.9101 153.023 37.2197 153.023C36.5294 153.023 35.9697 153.685 35.9697 154.5C35.9697 155.316 36.5294 155.978 37.2197 155.978Z" fill="white"/>
<path d="M44.4102 164.476C45.1005 164.476 45.6602 163.814 45.6602 162.998C45.6602 162.182 45.1005 161.521 44.4102 161.521C43.7198 161.521 43.1602 162.182 43.1602 162.998C43.1602 163.814 43.7198 164.476 44.4102 164.476Z" fill="white"/>
<path d="M51.5996 172.984C52.29 172.984 52.8496 172.323 52.8496 171.507C52.8496 170.691 52.29 170.03 51.5996 170.03C50.9093 170.03 50.3496 170.691 50.3496 171.507C50.3496 172.323 50.9093 172.984 51.5996 172.984Z" fill="white"/>
<path d="M58.7998 181.482C59.4902 181.482 60.0498 180.821 60.0498 180.005C60.0498 179.189 59.4902 178.528 58.7998 178.528C58.1094 178.528 57.5498 179.189 57.5498 180.005C57.5498 180.821 58.1094 181.482 58.7998 181.482Z" fill="white"/>
<path d="M65.9902 189.98C66.6806 189.98 67.2402 189.319 67.2402 188.503C67.2402 187.687 66.6806 187.025 65.9902 187.025C65.2999 187.025 64.7402 187.687 64.7402 188.503C64.7402 189.319 65.2999 189.98 65.9902 189.98Z" fill="white"/>
<path d="M73.1797 198.489C73.87 198.489 74.4297 197.827 74.4297 197.011C74.4297 196.195 73.87 195.534 73.1797 195.534C72.4893 195.534 71.9297 196.195 71.9297 197.011C71.9297 197.827 72.4893 198.489 73.1797 198.489Z" fill="white"/>
<path d="M80.3701 206.986C81.0605 206.986 81.6201 206.324 81.6201 205.508C81.6201 204.692 81.0605 204.031 80.3701 204.031C79.6798 204.031 79.1201 204.692 79.1201 205.508C79.1201 206.324 79.6798 206.986 80.3701 206.986Z" fill="white"/>
<path d="M87.5703 215.483C88.2607 215.483 88.8203 214.821 88.8203 214.005C88.8203 213.189 88.2607 212.528 87.5703 212.528C86.88 212.528 86.3203 213.189 86.3203 214.005C86.3203 214.821 86.88 215.483 87.5703 215.483Z" fill="white"/>
<path d="M94.7598 223.993C95.4501 223.993 96.0098 223.331 96.0098 222.516C96.0098 221.7 95.4501 221.038 94.7598 221.038C94.0694 221.038 93.5098 221.7 93.5098 222.516C93.5098 223.331 94.0694 223.993 94.7598 223.993Z" fill="white"/>
<path d="M101.95 232.49C102.641 232.49 103.2 231.829 103.2 231.013C103.2 230.197 102.641 229.535 101.95 229.535C101.26 229.535 100.7 230.197 100.7 231.013C100.7 231.829 101.26 232.49 101.95 232.49Z" fill="white"/>
<path d="M109.15 240.987C109.841 240.987 110.4 240.325 110.4 239.51C110.4 238.694 109.841 238.032 109.15 238.032C108.46 238.032 107.9 238.694 107.9 239.51C107.9 240.325 108.46 240.987 109.15 240.987Z" fill="white"/>
<path d="M117.23 249.059C116.74 249.638 115.95 249.638 115.46 249.059C114.97 248.48 114.97 247.546 115.46 246.967C115.95 246.388 116.74 246.388 117.23 246.967C117.72 247.546 117.72 248.48 117.23 249.059Z" fill="white"/>
<path d="M123.53 257.993C124.221 257.993 124.78 257.332 124.78 256.516C124.78 255.7 124.221 255.039 123.53 255.039C122.84 255.039 122.28 255.7 122.28 256.516C122.28 257.332 122.84 257.993 123.53 257.993Z" fill="white"/>
<path d="M131.61 266.065C131.12 266.644 130.33 266.644 129.84 266.065C129.35 265.486 129.35 264.552 129.84 263.973C130.33 263.394 131.12 263.394 131.61 263.973C132.1 264.552 132.1 265.486 131.61 266.065Z" fill="white"/>
<path d="M137.92 275C138.61 275 139.17 274.339 139.17 273.523C139.17 272.707 138.61 272.045 137.92 272.045C137.23 272.045 136.67 272.707 136.67 273.523C136.67 274.339 137.23 275 137.92 275Z" fill="white"/>
</svg>
