<svg width="15" height="16" viewBox="0 0 15 16" fill="none" xmlns="http://www.w3.org/2000/svg">
<path d="M14.8112 12.9257L11.2095 9.20485C10.9512 8.9379 10.6284 8.83102 10.4886 8.96751C10.3482 9.10301 10.0252 8.9964 9.76694 8.72945L9.71542 8.67604C11.3274 6.55589 11.171 3.52032 9.23521 1.58454C7.12249 -0.528178 3.69698 -0.528178 1.58454 1.58454C-0.528178 3.69725 -0.528178 7.12227 1.58454 9.23499C3.55329 11.204 6.6606 11.3359 8.78508 9.63528L8.8077 9.65886C9.06549 9.92581 9.16152 10.252 9.02074 10.3877C8.88063 10.5235 8.97596 10.8499 9.2345 11.1163L12.8343 14.8387C13.0926 15.1049 13.5181 15.1128 13.7853 14.8543L14.7956 13.8768C15.0618 13.6189 15.069 13.1936 14.8112 12.9257ZM8.04637 8.04606C6.59249 9.50016 4.22659 9.50016 2.77293 8.04655C1.31905 6.59267 1.31927 4.2265 2.77293 2.77288C4.22659 1.319 6.59249 1.31922 8.04588 2.77311C9.49999 4.22677 9.49999 6.59244 8.04637 8.04606Z" fill="white"/>
</svg>
