<svg width="1506" height="289" viewBox="0 0 1506 289" fill="none" xmlns="http://www.w3.org/2000/svg">
<path d="M591.3 234.148L584.07 286.938H593.62L600.98 234.148H591.3Z" fill="white"/>
<path d="M635.901 259.769L634.671 269.129H651.131C649.391 272.419 647.061 274.939 644.291 276.549C641.511 278.229 638.421 278.999 635.001 278.999C630.421 278.999 626.611 277.449 623.451 274.219C620.351 271.059 618.801 267.119 618.801 262.409C618.801 257.699 620.281 253.309 623.321 249.439C627.191 244.539 632.161 242.079 638.231 242.079C641.071 242.079 643.591 242.599 645.851 243.629C648.041 244.729 650.371 246.599 652.761 249.369L661.021 244.009C658.951 241.359 656.761 239.299 654.501 237.689C652.241 236.139 649.661 234.979 646.821 234.079C644.041 233.239 641.141 232.789 638.171 232.789C630.171 232.789 623.261 235.689 617.451 241.569C611.711 247.379 608.801 254.349 608.801 262.349C608.801 268.929 610.801 274.609 614.741 279.389C619.641 285.329 626.361 288.299 634.941 288.299C642.811 288.299 649.331 285.719 654.431 280.619C659.461 275.459 662.241 268.549 662.631 259.769H635.911H635.901Z" fill="white"/>
<path d="M679.851 234.148L672.621 286.938H682.171L689.531 234.148H679.851Z" fill="white"/>
<path d="M697.082 234.148L695.852 243.508H707.272L701.332 286.938H711.202L717.142 243.508H728.182L729.282 234.148H697.082Z" fill="white"/>
<path d="M764.26 234.148H755.87L727.34 286.938H737.99L743.99 275.708L749.02 266.348L758.31 248.988L764.96 275.708L767.74 286.938H777.42L764.25 234.148H764.26Z" fill="white"/>
<path d="M799.441 277.908L805.511 234.148H795.511L788.281 286.938H814.681L815.841 277.898H799.451L799.441 277.908Z" fill="white"/>
<path d="M873.591 261.839C872.941 260.939 871.591 259.389 869.521 257.189C865.651 253.119 863.321 250.479 862.551 249.249C861.781 248.019 861.391 246.989 861.391 245.959C861.391 244.929 861.841 244.019 862.681 243.249C863.521 242.539 864.551 242.149 865.841 242.149C868.421 242.149 871.131 244.019 874.101 247.889L881.331 241.499C877.131 235.689 871.911 232.789 865.651 232.789C861.131 232.789 857.521 234.399 854.811 237.629C852.681 240.209 851.651 243.179 851.651 246.409C851.651 248.859 852.361 251.379 853.841 253.959C854.941 255.829 857.261 258.669 860.751 262.349C864.111 265.899 866.111 268.289 866.821 269.509C867.531 270.799 867.921 272.029 867.921 273.249C867.921 274.799 867.341 276.149 866.181 277.249C865.021 278.349 863.531 278.929 861.861 278.929C858.311 278.929 854.951 276.609 851.921 271.899L844.301 278.029C848.821 284.869 854.691 288.289 861.851 288.289C866.561 288.289 870.431 286.869 873.471 283.969C876.501 281.129 877.991 277.579 877.991 273.319C877.991 271.449 877.671 269.579 876.961 267.709C876.311 265.899 875.151 263.899 873.601 261.839H873.591Z" fill="white"/>
<path d="M938.061 239.831C933.351 235.121 927.351 232.801 920.121 232.801C910.831 232.801 903.151 236.091 897.141 242.741C891.781 248.681 889.141 255.781 889.141 264.041C889.141 271.331 891.331 277.141 895.851 281.591C900.371 286.041 906.371 288.301 913.861 288.301C919.861 288.301 925.221 287.011 929.801 284.361C934.451 281.781 938.191 278.041 940.961 273.131C943.741 268.291 945.161 263.061 945.161 257.581C945.161 250.421 942.771 244.481 938.061 239.831ZM929.091 272.941C925.091 277.011 920.181 279.011 914.381 279.011C909.411 279.011 905.601 277.531 902.961 274.491C900.311 271.521 898.961 267.841 898.961 263.451C898.961 259.841 899.931 256.291 901.861 252.801C903.731 249.381 906.251 246.731 909.411 244.931C912.511 243.121 915.991 242.151 919.741 242.151C924.391 242.151 928.071 243.631 930.901 246.541C933.741 249.441 935.161 253.251 935.161 258.091C935.161 263.901 933.161 268.871 929.091 272.931V272.941Z" fill="white"/>
<path d="M964.781 277.908L970.851 234.148H960.851L953.621 286.938H980.021L981.181 277.898H964.791L964.781 277.908Z" fill="white"/>
<path d="M1021.7 234.148L1017.31 266.098C1016.73 270.418 1016.08 273.258 1015.5 274.748C1014.85 276.168 1014.02 277.198 1012.92 277.848C1011.5 278.688 1009.89 279.138 1007.95 279.138C1005.63 279.138 1003.82 278.558 1002.59 277.458C1001.36 276.298 1000.72 274.748 1000.72 272.808C1000.72 271.578 1000.91 269.578 1001.3 266.738L1005.75 234.148H995.879L991.879 263.258C991.299 267.388 991.039 270.488 991.039 272.618C991.039 277.458 992.519 281.268 995.429 284.108C998.399 286.888 1002.46 288.308 1007.76 288.308C1011.7 288.308 1014.99 287.598 1017.7 286.118C1020.41 284.638 1022.48 282.508 1023.96 279.668C1025.38 276.828 1026.54 272.178 1027.45 265.668L1031.71 234.178H1021.71L1021.7 234.148Z" fill="white"/>
<path d="M1039.52 234.148L1038.29 243.508H1049.78L1043.84 286.938H1053.65L1059.59 243.508H1070.63L1071.79 234.148H1039.52Z" fill="white"/>
<path d="M1079.98 234.148L1072.75 286.938H1082.24L1089.66 234.148H1079.98Z" fill="white"/>
<path d="M1146.26 239.831C1141.48 235.121 1135.55 232.801 1128.25 232.801C1118.96 232.801 1111.28 236.091 1105.34 242.741C1099.92 248.681 1097.27 255.781 1097.27 264.041C1097.27 271.331 1099.53 277.141 1103.98 281.591C1108.5 286.041 1114.5 288.301 1121.99 288.301C1128.06 288.301 1133.35 287.011 1138 284.361C1142.65 281.781 1146.33 278.041 1149.1 273.131C1151.94 268.291 1153.3 263.061 1153.3 257.581C1153.3 250.421 1150.98 244.481 1146.27 239.831H1146.26ZM1137.29 272.941C1133.22 277.011 1128.32 279.011 1122.58 279.011C1117.61 279.011 1113.74 277.531 1111.09 274.491C1108.44 271.521 1107.09 267.841 1107.09 263.451C1107.09 259.841 1108.06 256.291 1109.99 252.801C1111.93 249.381 1114.44 246.731 1117.54 244.931C1120.7 243.121 1124.12 242.151 1127.93 242.151C1132.51 242.151 1136.26 243.631 1139.1 246.541C1141.88 249.441 1143.29 253.251 1143.29 258.091C1143.29 263.901 1141.29 268.871 1137.29 272.931V272.941Z" fill="white"/>
<path d="M1201.51 234.148L1196.61 270.028L1177.57 234.148H1168.92L1161.76 286.938H1171.25L1176.22 250.668L1195.58 286.938H1204.03L1211.19 234.148H1201.51Z" fill="white"/>
<path d="M1245.46 261.839C1244.81 260.939 1243.46 259.389 1241.39 257.189C1237.52 253.119 1235.19 250.479 1234.48 249.249C1233.71 248.019 1233.32 246.989 1233.32 245.959C1233.32 244.929 1233.71 244.019 1234.55 243.249C1235.39 242.539 1236.42 242.149 1237.71 242.149C1240.29 242.149 1243.07 244.019 1246.04 247.889L1253.27 241.499C1249.01 235.689 1243.78 232.789 1237.52 232.789C1233 232.789 1229.39 234.399 1226.68 237.629C1224.55 240.209 1223.52 243.179 1223.52 246.409C1223.52 248.859 1224.23 251.379 1225.71 253.959C1226.81 255.829 1229.13 258.669 1232.68 262.349C1235.97 265.899 1238.04 268.289 1238.68 269.509C1239.39 270.799 1239.78 272.029 1239.78 273.249C1239.78 274.799 1239.2 276.149 1238.04 277.249C1236.88 278.349 1235.46 278.929 1233.72 278.929C1230.17 278.929 1226.88 276.609 1223.78 271.899L1216.16 278.029C1220.68 284.869 1226.55 288.289 1233.71 288.289C1238.42 288.289 1242.29 286.869 1245.33 283.969C1248.36 281.129 1249.85 277.579 1249.85 273.319C1249.85 271.449 1249.53 269.579 1248.82 267.709C1248.17 265.899 1247.01 263.899 1245.46 261.839Z" fill="white"/>
<path d="M395.771 54.0192C395.651 55.7292 395.501 57.4592 395.351 59.1792C394.891 64.2792 394.311 69.4292 393.721 74.5792C392.691 83.6292 391.101 92.3792 389.021 100.729C387.571 107.749 385.541 114.279 383.061 120.129C380.281 126.679 376.931 132.369 373.221 136.879C372.771 137.439 372.311 137.969 371.851 138.489C371.241 139.169 370.631 139.809 370.011 140.419C368.241 142.169 366.401 143.659 364.521 144.849C362.811 145.949 361.061 146.799 359.291 147.399C359.151 147.439 359.021 147.489 358.891 147.529C358.891 147.529 358.871 147.529 358.861 147.529C353.761 149.479 347.781 150.689 341.301 150.989C341.301 150.989 341.301 150.989 341.281 150.989C337.601 151.159 333.751 151.039 329.831 150.589C329.831 150.589 328.701 150.419 326.641 150.149H326.601C322.491 149.619 318.441 148.669 314.551 147.269C296.841 140.879 260.431 116.629 239.901 75.7292C217.751 31.5892 198.401 30.3992 198.401 30.3992C198.401 30.3992 198.601 32.1092 198.481 34.8492C197.551 62.8492 190.711 110.229 158.461 146.629C196.821 139.309 229.601 137.969 243.361 137.759C246.451 141.119 250.331 144.729 255.151 148.359C132.261 153.849 56.9711 189.879 22.7411 211.119C22.6811 211.159 22.6211 211.189 22.5511 211.229C8.5611 219.929 1.48109 226.119 0.871094 226.659C4.04109 222.729 7.4011 218.979 10.9111 215.389C10.9411 215.359 10.9711 215.329 10.9911 215.309C17.0311 209.229 23.8211 203.419 31.3111 197.889C49.4311 184.519 71.6311 172.849 97.1111 163.159C97.2011 163.119 97.3011 163.089 97.3911 163.049C101.831 161.359 106.371 159.739 111.001 158.179C111.021 158.179 118.011 155.329 118.031 155.329C118.051 155.329 118.061 155.319 118.081 155.309C120.891 153.729 123.641 152.179 126.461 150.599C172.981 112.599 181.251 53.8092 182.051 22.1692C182.051 22.1092 182.051 22.0492 182.051 21.9892C182.381 8.6692 181.381 0.199219 181.381 0.199219C185.251 1.56922 189.031 3.13922 192.701 4.88922C216.781 16.3092 236.491 35.4292 249.421 59.0192C249.421 59.0192 249.431 59.0292 249.431 59.0392C250.741 61.4292 251.981 63.8692 253.141 66.3392C263.291 85.2992 275.451 100.649 291.411 115.009C293.291 116.709 295.271 118.289 297.261 119.849C298.221 120.619 299.201 121.369 300.191 122.099C304.521 125.319 309.001 128.299 313.631 130.989C313.901 131.149 314.181 131.309 314.451 131.459C314.531 131.509 314.621 131.559 314.711 131.609C316.501 132.629 318.311 133.619 320.131 134.549C323.581 136.319 327.311 137.509 331.161 137.949H331.241C331.921 138.039 332.591 138.099 333.261 138.129C334.281 138.189 335.281 138.199 336.291 138.169C340.131 138.059 343.881 137.319 347.461 136.029C347.671 135.959 347.871 135.879 348.081 135.799C357.161 132.349 365.141 125.369 370.711 116.099C371.111 115.439 371.501 114.759 371.871 114.059C374.711 106.879 376.891 98.8992 378.221 90.4092C372.901 97.1592 366.911 103.009 360.421 107.749C350.711 114.869 339.891 119.519 328.561 121.099C326.161 121.429 323.741 121.629 321.311 121.679C321.031 121.449 320.751 121.219 320.471 120.979C316.371 117.539 312.931 113.769 310.291 109.799C315.631 109.419 320.871 108.509 325.971 107.109C331.471 105.599 336.801 103.539 341.911 100.939C355.661 93.9792 367.761 83.2792 377.061 69.9092C377.951 68.6292 378.811 67.3392 379.651 66.0092C382.441 61.5792 384.941 56.8892 387.101 51.9592C387.331 51.4392 387.551 50.8992 387.781 50.3692C391.231 42.1392 393.761 33.2892 395.181 23.9792C396.671 33.4392 396.541 43.5792 395.771 53.9892V54.0192Z" fill="white"/>
<path d="M588.028 43.4805H565.398L517.018 140.99L493.288 43.4805H469.468L433.898 183.42H459.018L481.348 95.5205L502.658 183.42H522.718L564.258 99.7105L565.398 183.42H589.938L588.028 43.4805Z" fill="white"/>
<path d="M704.619 43.4805H682.459L606.879 183.42H635.139L688.929 82.8305L706.579 153.651L713.989 183.42H739.489L704.619 43.4805Z" fill="white"/>
<path d="M865.339 43.4805L852.34 138.62L801.88 43.4805H778.94L760.02 183.42H785.229L798.37 87.2505L849.51 183.42H871.949L890.979 43.4805H865.339Z" fill="white"/>
<path d="M904.932 43.4805L901.691 68.4005H932.071L916.351 183.42H942.441L958.161 68.4005H987.321L990.371 43.4805H904.951H904.932Z" fill="white"/>
<path d="M1074.69 43.4805H1052.53L976.941 183.42H1005.2L1058.99 82.8305L1084.08 183.42H1109.55L1074.69 43.4805Z" fill="white"/>
<path d="M1223.95 97.7105C1227.91 91.2405 1229.9 84.2405 1229.9 76.6805C1229.9 69.7805 1228.21 63.7005 1224.85 58.4705C1221.48 53.2405 1217.1 49.4305 1211.7 47.0505C1206.3 44.6705 1197.36 43.4805 1184.84 43.4805H1149.69L1130.77 183.42H1144.88L1153.84 117.22H1164.92L1207.06 183.42H1222.96L1180.7 117.22C1191.87 117.22 1200.88 115.59 1207.73 112.32C1214.58 109.05 1219.98 104.191 1223.96 97.7105H1223.95ZM1171.76 103.521H1155.68L1161.97 57.0005H1185.95C1196.48 57.0005 1203.76 58.3105 1207.83 60.9005C1213.09 64.2005 1215.73 69.4805 1215.73 76.7505C1215.73 83.2105 1213.83 88.6805 1210.07 93.1305C1206.29 97.5905 1201.32 100.58 1195.18 102.1C1191.49 103.05 1183.7 103.531 1171.77 103.531L1171.76 103.521Z" fill="white"/>
<path d="M1318.23 72.8405L1335.49 124.451L1339.91 137.67L1355.21 183.42H1369.58L1322.66 43.4805H1319.42L1238.82 183.42H1254.42" fill="white"/>
<path d="M1488.7 43.4805L1438.23 106.951L1408.31 43.4805H1393.63L1429.99 120.641L1421.49 183.42H1435.19L1443.69 121.26L1505.68 43.4805H1488.69H1488.7Z" fill="white"/>
<path d="M572.259 244.579C569.739 240.539 566.569 237.559 562.659 235.639C558.749 233.719 552.729 232.789 544.649 232.789H536.109L528.699 286.939H545.509C552.589 286.939 558.089 285.949 562.119 283.829C566.089 281.709 569.399 278.399 571.979 273.769C574.629 269.199 575.889 264.169 575.889 258.739C575.889 253.309 574.699 248.679 572.249 244.569L572.259 244.579ZM562.599 269.929C560.609 272.909 558.029 274.959 554.789 276.219C552.469 277.079 548.769 277.479 543.599 277.479H540.219L545.049 242.329H547.569C551.739 242.329 555.119 242.989 557.629 244.319C560.149 245.579 562.059 247.499 563.459 249.879C564.849 252.329 565.509 255.309 565.509 258.879C565.509 263.249 564.579 266.959 562.599 269.929Z" fill="white"/>
</svg>
